<mxfile host="65bd71144e">
    <diagram id="wHOcMJWSCROa1yR8R9vL" name="Page-1">
        <mxGraphModel dx="2014" dy="2116" grid="1" gridSize="10" guides="1" tooltips="1" connect="1" arrows="1" fold="1" page="1" pageScale="1" pageWidth="827" pageHeight="1169" background="none" math="0" shadow="0">
            <root>
                <mxCell id="0"/>
                <mxCell id="1" parent="0"/>
                <mxCell id="11" value="&lt;h1&gt;Architecture&lt;/h1&gt;" style="text;html=1;strokeColor=none;fillColor=none;spacing=5;spacingTop=-20;whiteSpace=wrap;overflow=hidden;rounded=0;" vertex="1" parent="1">
                    <mxGeometry x="-810" width="190" height="120" as="geometry"/>
                </mxCell>
                <mxCell id="12" value="" style="shape=image;verticalLabelPosition=bottom;labelBackgroundColor=#ffffff;verticalAlign=top;aspect=fixed;imageAspect=0;image=data:image/png,iVBORw0KGgoAAAANSUhEUgAAAggAAADQCAYAAABiDpkIAAAAAXNSR0IArs4c6QAAIABJREFUeF7sfQd4XUeZ9jun3Kbee3GRux3bcXfilsSxYztOSCgpdAiwPGSXBZafXcoCWQILbGEJbOgtYRNCmlNIL44d9ypbbpKbeu/SvfeU//lmzlWzZOnKV7IUzYCTWJozZ+adOTPvfJXFx8fbkEUiIBGQCEgEJAISAYlADwSYJAhyPUgEJAISAYmAREAi0BcBSRDkmpAISAQkAhIBiYBE4BIEJEGQi0IiIBGQCEgEJAISAUkQ5BqQCEgEJAISAYmARGBwBKQEYXCMZA2JgERAIiARkAhMOAQkQZhwUy4HLBGQCEgEJAISgcERkARhcIxkDYmAREAiIBGQCEw4BCRBmHBTLgcsEZAISAQkAhKBwRGQBGFwjGQNiYBEQCIgEZAITDgEJEGYcFMuBywRkAhIBCQCEoHBEZAEYXCMZA2JgERAIiARkAhMOAQkQZhwUy4HLBGQCEgEJAISgcERkARhcIxkDYmAREAiIBGQCEw4BCRBmHBTLgcsEZAISAQkAhKBwRGQBGFwjGQNiYBEQCIgEZAITDgEJEGYcFMuBywRkAhIBCQCEoHBEZAEYXCMZA2JgERAIiARkAhMOAQkQZhwUy4HLBGQCEgEJAISgcERkARhcIxkDYmAREAiIBGQCEw4BCRBmHBTLgcsEZAISAQkAhKBwRGQBGFwjGQNiYBEQCIgEZAITDgEJEGYcFMuBywRkAhIBCQCEoHBEZAEYXCMZA2JgERAIiARkAhMOAQkQZhwUy4HLBGQCEgEJAISgcERkARhcIxkDYmAREAiIBGQCEw4BCRBmHBTLgcsEZAISAQkAhKBwRGQBGFwjGQNiYBEQCIgEZAITDgEJEGYcFMuBywRkAhIBCQCEoHBEZAEYXCMZA2JgERAIiARkAhMOAQkQZhwUy4HLBGQCEgEJAISgcERkARhcIxkDYmAREAiIBGQCEw4BCRBmHBTLgcsEZAISAQkAhKBwRGQBGFwjGQNiYBEQCIgEZAITDgEJEGYcFMuBywRkAhIBCQCEoHBEZAEYXCMZA2JgERAIiARkAhMOAQkQZhwUy4HLBGQCEgEJAISgcERkARhcIxkDYmAREAiIBGQCEw4BCRBmHBTPjoDZqD/2bBtBTazAdAfWSQCEgGJgERgvCAgCcJ4malx1k+FMeiWjQAYTAYokiCMsxmU3ZUISAQmOgKSIEz0FTBC44+ybHztA3fjm48/AoMxEGEIlZAsIfQTEjBYDOiuMUKdks1KBCQCEgGJwJARkARhyFDJiuEgkGjZ+POX/glbf/xDtDO7iyAQCbDoDwNU21E8EGMYgCBQfamcCAd5WVciIBGQCEQGAUkQIoOjbKUPAkk28Kcvfgm3/ujf4VeVLoLAyYEiZAUKN02wEMs0uDwe1He0XYIj1TQc0YLmMAVJGORykwhIBCQCI4+AJAgjj/GEeIPFbKiKhQUpOfAzC7UV5fjVF76Iu3/y39DjYlDf0oQYqIiO8mJefBIWF0zBq6dPYmdFOW5Mz8PtGzfiZ089AeZ24Vx5OWZlpqPVtHG6sgKLklKQlRiPwvYmnK6oBUxiF2QCKYtEQCIgEZAIjBQCkiCMFLITrF1NMfHgmg2Yl5sP1efFvzz6B/zT3ffir397GbMXLsQ/P/0o7knPwe3XrUC+LxFffnEbqhsb8ZWNmzA3NQWeqGjsLynBs0VHcH12DnxRPuQkpOChV17El297H37/zPNYtfha/Me+PTh+/gInCCSNkEUiIBGQCEgERgYBSRBGBtcJ12qiy4U/fugefOKJxxClaVD8nXjwk5/A66+9iewZ0/H0jnfw4Jbb8A9P/QVbZ87BvJxc7KuuQGsgALOiGlu3bsaG//oRrvF68P0tdyBoWWi2Dfx597u4Z916fO73v0OHyhAMWlCYCiYlCBNujckBSwQkAqOLgCQIo4v3e/ZttuLGDxctxtYVy7CjrhzbD+3BJzZsxad++hP8bPMd0FxefPzFx+Ftt/GrT30OjxzYgRsyJ+GRwiM4f+Ysfvu1r2P5g9/BXM3GPVtuxee3PQ7TBm5MyMQXtt6BDz38c/htsmokuYHNCYIsEgGJgERAIjByCEiCMHLYTqCWbYCZYBYwyxuHaempqIKBi7UNqGztBLMsGJoC2Aa8zMbKlCzMyc1Ca0cQTx47jDaTwae70Oq3Aa+FL82YjllT8xEImujwm9jeWIlH9xwGsxXHp0EShAm0uORQJQISgauEgCQIVwn4ifPabkdFRVFgWzbFV+wavpAD8JiLUJjCJQMGEQrDgKKqXcERyOOBt8SlCJAShBFcQIRzSD4zWnYeRP36luG/m3rft0UheYpEuRr4RKLfsg2JQLgISIIQLmKy/iUIDDVWwWD1iEBQMW0bpmEIEkABlijQUr8EIXSM9SYcQzsG+qoohvZU+NPft4+X9rm7zf4REv4al/PacAJJOA11t3K5d4nKom7v94bCZNPvh3pIdxM9eqp/LHsi3rtGdy964jvYjPQedc8nQ0c4jYR6Ewr1PVCLfUN3XX6Wh0IQBlvr4a+j0BM9xzCQmq2/Wb30jf33UaA6cv0P9WOgtT4wjRt4vnu22Xv9DXUc3V/KUNdC7zU72Fod/nxf3SclQbi6+I/Zt4stwoANjYIlO0dJSMQvtsjQB0uREE1mwmYWmK2C8dsbHTvieLH4T8QnKD6kkBRB5GsQ8gMyPHT+21JgGZbjymjDJkGCDagUsNm2wUiKwG0QFJgkeehqE9Bs0abBbNjELTixCG3p3Qct9UgEahKhoG0YvL2evhHi4AwdozQWpStkdLccpCc5oTepsB28BA70nNhMTP5b0SfKT0GuobyTzhEtbr0CN/pnF2Jkd8Gon4xHpdQsJvrObI57aIyiJQUUL4IjzyjANQPjz3Pf0B5Ew4TKGGyb3kZ1RMfozSr/mWg/1LvQfZyqCSRoHijPhphPTiqcsdA66HnMWEz8TvRTDJneJHJ10D9VMN4/+p3zRttZEw4eVLtnrE3Rhgi2ReOlOexNaAT6ik3/thBktCYEpiqtn9D4aD05cyxWHwXxCv2EIBGdZrQ++KBUwBarmf+K9UCG+mSH1qNY992t9yQqvQ+x7hZC8y4omsLtbRSxTpyvJMgsPl4av0r4C+S7vi3xBK0yo+unNI+hfhDRDq1IQkas1dAap3YtKPTpQXW+i950QYyO/inWryDu4v3UEo+IatOuQTV6fueilni3mEsRMM2EYquwaO8AoPEKtI8oXXNK9ek7pzHT+2jOqQ9B6qjYFXj9Lhz4ehd1NLps0DrvQpD+LvqgdKksQ08S/mLPonXIMbPpmw/hK4imGAfj80C/o28wVAQ+3bRE1BU/dVp20A7tLV2Pjsn/kARhTE7L1e8Us3VYMPmHrtMGrJowbVrqNhhzPm6btnbn81Hou6YnQh8bbZamOLwZHeQMbkVF0DT5ByM2c9EW/ZWOZ9Wy4NJcCNJHbQXFZhw6/k2Djj64FB0KDHTYAbH9qHRAKNzrQbFtuFRBHAyTbz/8SNcVN4J2EJZt8c1BVz38vy0mNn1qV1GBgOnnAgsdLr4dBxSTb/gqc9ERhiAzoNKAgoDGx2TAVC0wVYEaAEzFAtPEoasG6fBkMF0mVIVBD3gQMALQfRoM1YZm2TDbTcClQHNrYEHA3x6E2+eG5lP5RtlR3wrbo8IV7+Ingr/Rj4BpIj45CaqmoLOpGe0dAUQlx0HXVFidJlrqG5GQGA/V7QIzTdTX1EHRVSRlpXCQG8qqobo0xKbFgyQ2VaXVJLJBZn4Wn4/Oxg7U1tQjOSMFmk+H1dqGppo2xGUmwBfng20oOH/qLLyJMUjKTIPKVFSVlMLvb0f2lGzYzERdeT2MQAAZ2ZnQNR3VlVVob2lHVsEUbmRqBwyUnT+P2LQExMYnwDKAmnPliEqIRkJWMicoxUdOQyVX1ym5fNNuvFiNhoYm5M3Jg6oqaKxsRGNtA9ImZcMX5UJHUwCV5y4idXI6PLFeTqKKC8/AHe1D9qQcWJaN0uLznGhlTsnkB3v5iYswzA7kzy7gW3hHYyvKL5QhfUo2PNFe+Bs7UXW+EnHpiUhITQYMExeLiuGJj0VaVjpM00LFiRIeyCtrSi4/8uqra9He3IqU7DQoLg9a6lrR0tiIrLxcqC6aVwMlxaWIjvchKTUBRsBE1YVK6DEaEjKSOcE9f/osVN2FFJoz2Gita0FbYxsyczL5evc3taO5vgFxqYnwREfD6DT4vEYlJkKPdQOWjbqKan6UxabEcKLXWt8CWBZfO4RBW0MTOjsC8CX5ONdmAaCzqQVaggdM0YAgQ6ClA8yjciyCnUF0NHdC1TVoHjf/1q1AACBJX7QOyzRgBhVYJmBrJP2j79kNyzBg03fhnJDMou/Ggs0ZriCjdJ4TsaC/63TQKzb8FpEExueaSAFdVejcFYREgUXv5wSKwaXq/Htn9HI6uHWd7yvBIGWCoQ9cAVNV2NQX+sAV2hUUXp/6AkUT+xDPHCNIqwKdv8zixEPhpInaNhXRZ04aiaxYFnEI/hfO94lcE0lkgrRqDrGnRc6JJ5E1m/Yq2tvGfpEEYezP0VXqIR3DfmTNSOc3vJbKOrS2BJGckwRfvA+238KFE2eRmJkIX0oydGaj9NhFMI+GrGm5/IMqLTwPptuYMm8G36yqis+jprYeC1YvhqYoaKpswOnjZ5A/ezqS01LQWlOL4iOnkD49FwmpifwjKtp5BK4EFybPKuBtFh87jfaODsxZMpdfHYuPF6OjsQlT582C7vagva4ZZ4vOYurCKXC73fzQLTl8Bok5ScjIy+IH14n9JxCblID0nDR++Jw7VoyABUyaOxnMZGgqbUB9TTXSZuRB0zW01behsaoeSbmJUFwqWEDhB1psog+eRNqAFVQXl/GrTUpuOixTQXN5FbeloMNFU1W0VXegrbMZ8ZnJMGBB9ZtoqW2CO8YNb6wPRqfFDxNPbDTUaB2aaaCjshEBVYWeGCVkL41t8PsDcKfG8U1JafWjsxNwx+lQFAN2p41ARwCKj8HSdHHjbQnAUhnUGNrUAdbqh0GbNx3+lgmlzYJpAno0l20AARX+gAHFQ8wLUPwm9ICNgA+wXbQ5arBbyOjUAjx0C9PB2g0YzIDLp/LDyfI7kiCdDgNACdCtlMH00cZtgZkqWIcB00MXNBu6RZiqMDTnHZYCdNiwSKJE5x1MqH6bH8gshiQ01C8bimHDdKkwFRNqEFCCDLZXha1afBNn7TZMjeowKCag0Xmm2LA9gsTqfiBIh4ZX5QSWfk/zb3sZLNWERkD56cBTYSlBcfPrMPkat1201zPYrQZfy0GPApgBaCa9iwFuehcDs1ywAgZUj4agTWO3ORmER4GtiUOQxkp9pn4pdOB00kSpYB5H3NTBYBsWVK/Ob9dEUNWgCXhUqLrKTyKzLQgzygW4NCiWAbPFgGmbcMW6oDALgVaT/1uLJ0KgwmzpQNAfhCvRxzk4Dc+sb4UZ7wZzu+G2NLTXt8HlVTkxJGlFXUUj3FE6PHExUJiG9uoGmEYQiXlpHJu2hjZ0tnbCl5YE1cNgtwTRUFeP5JwU6G6N39hLSy7AHRuFjLx0KEYAFWcqoWgK0vKyeb9Kz1zgJDN/1lRoUNFQUY3qsirMXDQLLrcX7Q1NKD5xGkl5GUjLSIfRaeLUwZNIyU9BSmYilyQce/comNeDuYuvgWUGUXb6LOobGjFv2TWwVBtnjpxGe0sb5i6eBz3KC3+ziaP79iNvTj4SkuLQ0dKJ0/tOwZPsRc60PFhBBWcPnIQ32of0aTlghoXSkxdh+gPIn5OHQDCAtppWtNbUIDo7BZrLBbO5DS3V9WBJ8WBeN3SLCH0TjIAFxkPDDlV5d5W2/5BcKT4+/r2qPrm6yI7zt9Py9bs6kZ2ejdryOn574jd+J38CCf1UfosWZgLceJD4NxPiNy7KNYWRYVfMAi42prri4xCsnUQPjrzWET/21LY7SaOFUNJ5N1+wXT+4VFRHz4SkFEKYKZQYA5VQC321j721vb3b6KndFt0RYsWB2ugWA4sa/QsYu0XF3WqHbjRC/9X7Hd3izJ7jG0yT2luf219vxFgu189ubXH/fRj4ExgI8aF8NP3NY99e9jcL/Y+x+42DiXwHWj99x9J3DIO127d+CPW+7+vZzkB1uu1Jesjxer1g4PUpqvVd8+JnlypKutd8z6cGWr/drYpvsfuZ/ldC97c2vG+z7zh6jq3HqnaWrULiQzqynX0p1D36u0KiAFLLWOQ5JVScfOxcMCFUclxiQJIGUkuQtMRR3Yn9ivZEoT5JzE1CfVUz1A6SmJDMdOwXKUEY+3N0VXpIR3hAMZAcn4TW+qY+m0Ro2wjp8ugS4xz6XYeKo8fu0/vujau/4yz0s+7NUOgbhT5cbEo9dzFnQ3L00ZducZe2N/Q6fbfLgdoaar2hHGz9tTXQAXO5AyTU10i+c7htdc1an5Uwnvs/0lj0h9lIv3MwAnW11v9Q18/IYhai/r1pmlB/iF3JEnYhXC0asrJyqJAzdQmTElBf0Qi9naRLUoJwVQ42+dLIICAMdEgsSSZAQkIgbvxDPRB73qe7+xQuQeh+MpIbZCTbGioew33nSG/cQyUlw+3/UDf48TTOwaQJV0rQRvaw6/8bjiT+Y4XUjvTavpx0qHuNdBk5UvRXS+VGsj0NGyOzY49MK1KCMDK4vgdaVRBQDSTExKOtsbkPQXgPDE8OQSIgEZAIjAICIS8VTdNgmMLweSCKOQrdCesVkiCEBdd4riwsfnsI6gfQL4dc23R0uDuRnZqFuotVjotXf+MXijzGNNg26dX6ajnHM2ay7xIBiYBE4MoQCBGExPwU1FXWAx3k4SSMXsd6kQRhrM9QRPpHPssmNNuFeG8SbItcBhV4NA80RYWqUAwCBS5Fg8p0/saAZcGvBZGWmobaivru0Ck8BIEQrQkfcIqOGEBAsRG02mH4A6htryRjdlkkAhIBicCERyBEEGInJ6O+vBFKB22e0khxwi+MsQSAyWykerPxkVvuRWNzDTra2mF1AqZhIRAIwgga3EWN++faQKvfzy13yQaB+/jS/xiDqqnQXToU8v3XNO6+RGy4Q2uFZatIcifhqf2Po6W9Hdq4EaSNpZmSfZEISATeSwiECIKe5EN7c4C7lPLAW+OgSAnCOJikSHSRAsGk+jIQ74vD6erjPEgOVw5wrx8eEo7/hcczIR2ZE+CDgg91meI4Lj7d/Qm5NZFOjdIwK7ixYCt2lr+O1ra2XlEJIzEG2YZEQCIgERifCFCsVhO6rVG8SNhSgjA+p/G922sVqb50xPpicLq6iMcmEP66vXUB3fkSRSSwUA6EoeBCLsM3TLkdOypeRXtb27gJBjKUsck6EgGJgEQgXARod+VRImEjNj0erbVNUAIUG2F86GClBCHcGR+n9SkaYrovHfG+GJxwCEJ/Q+kZ8iZcc0MiCOum3IZ3y19GZ1sHSK0hi0RAIiARmMgIhHbBmJxEtFTVQgmIbBbjoUiCMB5mKQJ9tKAi05eOOCIINUU9YhpEoHGnCSIIqyffip2lf4PRGehKthK5N8iWJAISAYnA+ETAm+hDa3MLVB5qWRKE8TmL79FejxZBWJW/CTtKX4EV8PMsarJIBCQCEgGJAFc28KCLJD0QmU/HfpEShLE/RxHp4WgQBMZsrMq9Be+WvQ4z2CkJQkRmTjYiEZAIvBcQ8CX40NHcyo27eph+j+mhSYIwpqcncp0bLYJwfe5G7Cp/E2aACELk+i9bkghIBCQC4xmB2JwENFXWQwlQoKTxYZ8lCcJ4XnFh9J2MFDOiMhDj8eFU7ckRsEGwQIndV+Vtwu6K7TAC0kgxjOmJQNUgGFRo0Hj+eu54GsqyaVPOOSeTZtebeupAhYsqObTwOPHjQz0aAczGXxPCK5nSbLtgKeRL31/SH549xfkdJRQSqbwpiyrlAKAgaapFubzHT06A8TdT3T3WKDc7AF9mDJqkF8N4nsr3ct9VpEdnItrtxekRIQgmJwjX527CnoodMIJEEMZHxrL3wqyrloqlM5ZC1XX420Wya4r9TvEuKG1tMNCJoGE4LleAadoIBilAlh9BBODxekCe2lVVpWiz/LB5Im9ZxiYCDCpjiPHEc7JApj4UCZVSEytMFfFNmMojnuqKGx7FDd0JW0ZcQdMVBIN+VFRXoMVqgiW/0xGdZp0TNBudzADNDqWGtqQEYUQxl42HjYAgCD63B8W1p0ZAgmDyTA8rsjZgf/UuBAPtkiCEPUfDf0C1dNx32+fxq6f+Fy5dg6qqcGkqNJUCs9AGRVIF8r8WWTaJNFhmECbdKu0glx5kJ+SguqESjYGGnjm1h98p+eQIIMDAbB1zcmejtbkDbZ1tUFUFiqpyMsgjn9pEEIR+T1d0eJgOXdFgtWuwLQsB1g63S0NMRgx2Hd8xbjILjgCYo9KkIAiAEudCZ2snGA+MMD4uT1LFMCpLZCy8ZDQIArAyeyP2Vu1wVAzj4yMYC7NzpX2gQ+OzWz+Ph576CRQ1FM3iUvwvtQuxodoWD6WdEzcNDW31aDEkQbjS+RjJ52murp2yAifLjqGxo5aSo/R4nTiMQoVIu2KLdaBaLn44qbaKNFcm8ufl4u3Db41kV2XbRNIcghCVE4v6qnqoARX2OJHaSIIwYZawIAhRLg/O1I2MBIGuoStzNmBvxU6YhrRBGM2lpcCF+7Z8Fj9/5iHwHFpdOujevbgcQchPnIHa5lpJEEZz4obxLiII8/OW4lRlEZoD9X1aGJggUORUy7KgWTrSXbmYNCcX7xzezp/vL6rqMLomH+kHgS6CkBuLBm6kKAmCXChjDAHyYsgmFYPLg9MjQhDoTDKxPHstdle+C9skPba0dhutZaBAwyc3fxYPP/M/jk56YBeSvvbTwumKoSBlOi7WlqLdpjwasoxVBGiu5uYsQnH1SbT5m3g3u+e098yFErxzB3ynFmVhiWcpmFSQj/2n9o7VYb5n+kXh6qlYightT/PXc8bG8kClBGEsz04E+zbyBIGU2yaW56zC7ooQQSD9tyyjgQAnCJs+g4e3PQRlGLyMNq0ZGTNwpuIc/OiQ1G40Jm2Y76C5mpN9LScI7YGW8FthQBxLQP6kfBwuPhj+8/KJsBEgux+mMZiWCWaTZ8n4oOCSIIQ91ePzgZEnCHQqGViadR32VeyGafl51jJZRgcBIgifuOU+/OI5Igjhbz70xKzMWThVXgI/OiVBGJ1pG9ZbyJ11TtY1OFtzCq2B1vDbYDbilUTkTZ6Ew6cPhP+8fCJMBIQIISE7AQ1VjWDB8SI/ACRBCHOqx2v1kScI5MBjYknmMuyv3Iug7QfjqU1lGQ0EBEH4NH7x3M+GTRDm5MzBifOn4Vf8kiCMxqQN8x0MGmZnzcG56tNoDVLW1DALsxHLElFQMBX7T0oVQ5joDbt6TE48GquaoAaoCRkoadhAygcjjwARhCzHSHFkbBAEQViUsQQHq/ZLghD5Kbxsi3Sr/NTG+/Dw8+ETBB58Bwzzcueg6OxJBNSAtEEY5fkb/HVilshdlUTUs7Nn4Wx1MScIQ5IXhR6nFzEbcSRBmJSPI2ekimFw7K+0hoiDoHg1WJ0GV8WKuRz7RUoQxv4cRaiHkfBi6LnL9O2WIAiLiSBU7odhk5GilCBEaPIGb8ZW8MlbPoNfDoMgkGcDxW2ZlzcPJ4uLENSCg79P1hhlBMhVkQ4VFzTbxtTsApyrOYeOQMfQjpoeny652MWxREydOgUHTu0f5XFMxNcRQTChaDrMYIAbEUuCMBHXwZge8/DjIPCgrSYFQmKOj31/7FcShKs6/REgCAsmL0ThqcMwNQrhOz5uOFcV81F9eYggaNBsoCBnFs7VlKDdP0QJQo++hgjC5EmTcahY2iCM/DQKghCbmYDG6noy1SI50Mi/NgJvkBKECIA4PpoInyAEmQWKI07E4Fs3zMdv9hbhYnPHAIeHJAhXdR1cMUFgWDxtKQ4X7YWhkgRhGK4QVxWA9/rLQzprBZrNMCNvPkqqT6Gts3UYR40wUswlFYP0YhiFheMQhOxE1FfWQjEp3LIkCKMAvHzF0BEInyCkW35MyUjG7qoAvrsoDce1WDzybiHP0njp8pYEYehzMQI1I0AQls5YiYOFO2FwFUPvgDsj0GPZ5LAQoMiXCuYVrMCp8kK0tjcNiyAkKIlIy87CiQuFw+qFfCgcBFSe24S5NRiBACd440VCJyUI4czzOK5L2RwznUBJQ4mk6LYY/uvGaZiWmow/lXYgWFyEKXPn4Nsv7eNhQkWwj56FDhSDezEcrNgnbRBGe63YCj6x8T788oWfQw3TzZESx1DSn5UzV2P30XdgaEY/8zvaA5Lv6x8BCp2sYMG0lThZVoiW9sZhEQSSIKRlZeHkRUkQRn6lkTTO4onSVFtQg/EShF4ShJFfHWPiDeG6OapWAD9ZkomcvFy8UmshquYcgqn5+M83jvLkLv1JEGAbWJa9AvvL90iCMNqzbiv42M2fwq9f/F+evGfoRaQFpkNn1ax12H7kbRh6f/M79BZlzZFEgCLxKVhQsAynS4vQ3DEcggDEKUlIz8nCyfNHRrKzsu0uBGzEZaeguboBdoDogXRzlItjDCEQLkGwmYIsheFbyzPgSsqCZhn44hunUNXWzEWcly5wFZwg5KzA/jJJEEZ96m0FH1//SfzqxYehasMjCGvn3YTXD7wOSycJkSxjEwFBEBYWLMeZsiI0tjeEPVeUdyFeSUJqdqYkCKM4ybG5SWikZE2dlFV1fMgQpARhFBfI1XxVuATBY2oIug1EKQpiOxhWL8jGH46e50Og2OIDSRBW5K7E3tLdUoIw2pM9RIJA9iOapcBm5KkQsoynOVVw86JNeGn3y9yLQRKE0Z7Aob7PkSBMW4bi0hNDIgiUBpqSNHUVBiQoyZIgDBXyCNWLS4tFU30zEJS5GCIEqWwmUgiESxB0C/inJVPQrHmg1q9hAAAgAElEQVTxp0PH8b+br8edfxWpYQckCJaBlfnXYc/FXZIgRGrihtqOreAjN34cv335lwOqGOjmadsaopQ2uLxu1LdZYIyCtgiCsGHxZjy/8wXARYeQLGMTAUEQFs1YwVUMDa31/cxVr6hIsJ3APCQ5oEL/TlCTkZJFEoTDY3OY78FekaFiV7CrcTI+KUEYJxN1pd0kI8WsmCy4FR0ljWf4JjFQ4eFYLAO/uXEe/lLdiYbyC1i3YBa++brQV1JQnUuLCtsKYtXkNdh1fgcMOwB6pyyjhICl4N4bP4Y/vPqbfpM1kREimAmL6VgYA9z//q341K+3wQTlzHAIwpIteH7HczT50khxlKYt/NeQkaKKZbPXoOjCEdS31vYiCBazoNs2goxUfhpSFROb1yzCH159F6QZpE+XwnLHaymSIIQP/hU94Yn3wt/SQSERxokFgszFcEUTPr4eVpEZmwUNKs43lfRLEELnPm0wFizM1w18ecsaxPk8+Npr+3GksvkyQxYEYc3Utdh59h0EbQo4LgnCaK0Ry1Jw140fxaOv/PoSCQId99F2Jz6/eiEq2hW8ve8I/vSZrdj4m1fRHmyEDReXIGxcvAXP79wG20UqhnDsGEZrlPI9hIBmq1g++wYUXjyA+pbeBCHITGgmQ5ZLQWvQRAJMPPR3d+Guh59Aq2VCIQNjW0Osno7UrEycOCclCCO9qkJfUnxeIuoq6qEEJEEYacxl+2EjMHSC4LZM3DRzCl47Xow7JidhSpIXj19oxonayyWGEUaKq4kglGyXBCHs+bmyByxbwQfXfRh/fu130Pq4OZqMYYHShu+//2a4o5Pw8T++gMfvWoMtT+xCQ0sTDEaBWxRsXLIFL+zcBkuXBOHKZmNknxYEYR0KLx68hCCotoUMWPifO9dAz8jC/Q//ET++ayu+9vIeHC+rhqqSS6uKeFcy0rKyUSQJwshOVo+QY760GLRwGwSR+2Q8FKliGA+zFJE+Dk4QLMpZDhWJdic+uWwualp1lBYfQ5MVwGkjCo3W5ZL4hCQI67DzrCQIEZmyMBohgvCBNffisTd+B1Xpffun5D65Zid+8eG1MHxJ+N7Tz+HBO2/F+t88D7sD8GsGj+x2y9Jb8cKObTD1oJQghIH9aFclgrBs1jocK72UIFCehjy7Az+49Xok5mfiS398Dg/cuRH3PfsOympbeaIgUjcluJIkQRiliaOvkatlGWWrsUCEneIhjIciCcJ4mKWI9HEoBIFepCLKtuG2g/jY/DzMyEzDIyXV2HeqAu224SQa6a9DRBACWDOVCIJUMURkysJoxLYVvH/1PXjszT9cEiiJcY2ngbkxGj69YDq8Pg/+92gl9pRWQ2UabBBBULBp2VY8t/0ZWFLFEAbyo1+VE4SZa3G87DDqWmr62CAY8NoM989Ix/tXzMeblWXQAjb+5a0TaDXEwaTYNicIqdlZKDorVQwjPYMhp3BPrAdtHR2wDQWqPT4YgiQII706xkj75MWQE5sFHSrODmCDEOqqwiilrAWdKUiw2vDoh1bgH3eVY9+FKl5lIC8G4sdrCtbhnTNvSRXDKM87Jwir7sFjb/2BWw9wI1RHikk3RjJemxTtRXlHEB/MS0CxNwk7j53s6iURhM3Lb8Ozbz8tbRBGee7CfR2zXVhbsBqHqw6h9hKCYMIwAF1jiAl0YnZKDGrdXpyqahDxS5gKxbKQ5M1AckYaTl4ohG3Z4OdV/9bH4XZP1h8AgcS8FNSVVQHGeEnVJI0UJ8xiDhEEF1SUDEYQFAWJtoFb5s3ClHgNBTEM/7r7PIpqmriY7HIEYe20G7D99JuSIIzyyiKCcOeqe/D4W3+AGvJQ6VJzqljoCuKrH1iP+5/cjs9NjsdTzQxHLlbBdm4yRBC2LL8dz7z9lCQIozx34b6OCMLNM2/AvrL9qGmp7iFBYFx8nWS243sbVuLBtw5hfUE+GjzReGz/QZ54jb5dhdlI8mQiOTMVJ84d5QSBfBuEG54sI4VAHAVKKq/hEoTxYgIsJQgjtRrGWLtDJwg2KLBKLgvgBxsX4M/7ivFcWRM6NcatnwcmCIyrH9ZNuxFvn3pdEoRRnn8iCHdcdxf+sv1Pl6gYTKbgGgTxrbvX40cv7sb9y6fh7185iNoABUuionIVw/AIgvDLJ7tscQsFJx0iFIwjRmWh7bA7vkLX75wecKLSx26rf0OuoRl3hSS4rOtWzHj/eJqcrjg1/bTFBS9CKTNWbc2ZrWPD7Juxr3QvqpurehMEKJipt+JfblmLzz6/H/+8dBYeLW1A4bmzcNkqbEV8p2nebCRmJKKwmFQMPJG7JAgj/M1aigEXuaDamjRSHGGsZfNhIjA0guDE5VcUmDbDV2cmY5ffjbeLy8ReSb7VvPQXS5xcqFxYN/0mvHXyFUkQwpyfK60eIgiPv/1HaH1yMdDUeWBibYKOO+ak443yAB4vrnASxiigtTE8FYMC3WJYWrAaaYlJcHuiAE1FbFwMP4QMvx/+QAAdwQBMy4BhB2GaBkzb5CRCSLXp1KbDm26vPcPPMiiKylUlTFF6GF4O5e5lwbJMWNQ2uexaFmzLgmUbMEwThm1xsqCAsuxRFXoH9cfE+dJiVNRXQhjsOqu9ZxTCK52oCDzPCcLcTdh3YReqmyt78SqaTZcdxLeXzUR6TjIagxb+8el3YdkqKEAGjVdlFjJ8U5CQEYejZw4KgsDnYHzoxSMA4ag3wWU0LgVmULh/y3TPoz4F8oWXQyAcgkAbcmzQwPOfux0fe+ItXKhr4httQNF73Kr6bibkGqfjxpkb8OaJlyVBGO3laKu4/foP4om3H7lEgrAsyYuszHScuVCBe5fOguVx419f2AG/IUTLPCwS2SAs3YrndjwDiydrGvymTpucSjfWxAWorLsIOkc7zUZ+uJpk+kjSBEXl/xZsADwOB4m4Vad5OpPoMGc8Nn2PNcUAF2Pw6Dqa/QYsOxQWmltYOOiGGu67Fvmx7zTXoy7PWtn9OAMZaArCS+ON8saiIC8X+0v28zGENMW9whSP9rz28z6S5G2cuwl7L+y+hCCkakBmcgJq6utwW2YsilU3Xj5Tyck9jUgY0zNkenORkBGPo2cOCXIwbhIQj4EJGGYX4vOS0FBZA/hptQ3+fQ3zNRF9TKoYIgrnWG5MeDGQkeK5IdgguIJ+/GjVDKRPKkCLPwBdBe7761toDwZBIutL3XRCBGEj3jzxkiQIo70ULIbNK+/EM+/8H1S1d4CqyVE2bp6RhaT4JPzfrhOoM000dtIRSIX01ia/0RBB2PbOs2A63Z4H38CoBhGE/OTZKKkvJDYAC4ZzE+37fO+/941GT6lwQTd5RzlBp/v6FDdWL12If3lmOxRVc0ThnHU4xxkdehbA80r0LA5BuORn/Y9JHI8WYtxJmJ4+BfsvHuAUh+gPbJVLHsZSIYJwy/xbsffsTlQ1V3IFD9kWBBQbH8hNgKXaaGzuxLx4N0602nitqh6G7eoiYHQByPVOQVxGDI6cOTCWhvae7kt8biLqKuuh+8FTP4+HIgnCeJiliPRxcDfH0GvIiyFom8gyO7BhWhaq/cDdszLwZI2KJw8ecvSVfVe4JAgRmabhNmIp2LLydjz9zuOXEATyYMhR/Lhnbh4m503FT3cXorCyiWLy8UPDZCIOwqalt2Lb9m1gLpIrDF5oBZBEYHLaXJyqPgxSc/A4ssMooQ2TH8ogwmLjW4vzkDcpH598/E1+ow8VRznh0BvqxVB6O3CnQgTBp8UhPzEXJ2uLONHh+IxBgkBkYE3BTSisPoLqliouKQkhT+qFJYkx+Ph18/DKhVo8d+wc2gyKfaB2ZxBkDJO80xCbGYPDZ/YNY7bkI8NBQPNoCAb8UE1VEoThACifGUkEBicIfKu1wfW9puXHd1YUYNXcKfj+gVKkVJYje8ZsfOeV7SBPCKPL8CzU58gRBJ43oE+x+3HBGm69K2mrW7w9tvS1zFKwacVWPLvzSSi9Iina0G0TlqoiaFu4yfLjvrs24KN/2YlOU9y0uwnCbXjunacAfWhW1lyCoGiYnn4NjpXvd0JrD48g9Jxu6lUqM/HrLYtQ747GZx57BX6yolA16KAgTjY6mApSEbhNPyxudTj8K1mIIHi1OGTGZOBs0xkhQaBDFcxRb4zktxlO2zaX3q2cvBZF9cdR21zDbS1Co3dZpAq0kQ4bf3dtDqyESfjuG7tgmHwk4kWMYXLUdMSkR+HwGZo3WUYDAfrONEUBMzTudjweipQgjIdZikgfBycIRA7oTkkSBNU08NO1k+Dy6TiEeLQUn0Fizkw8+PoOvkGTTUPvEjmCEJHhTrBGyIZg04oteHbHM1DV3gZnNF+bC9KwIjMOSW4PXilvwhOFpY4ZXoggKNi8jAjCX2FrRBAGP3A5oWQqZmUswNHyfVCYdsXieB7L07bwoUkJKIjzYfKc+fjc/z2De6fnYmZWIp4uqcf+0xdw/5Kp0Dxe/PFoFc42NVzRbPckCCnuJJxvo7TmFgQKFN1jbJFB1Wa4bvI6FDUcQ01Tt6sqgUAEIc7DsDAzCYsTfMjKy8PnntoOpqiwuR0HZwiYEi0IwiFJEK5o7YTzcGxGHBrqmqAEaF1JghAOdrLuiCMwNIJA9zKFMRhQMdVswpMfXYenz5RjTUEuPvL0DhQ3B2Ep/VnhRo4g0A2f9KTdVtV0aPS9JdLB1vsjExKQ3uJmYZse2uDFv0mc3lfHToy+r+sdtdW7nqPbZuTSd2Vi7YhPN7kprrgV2959lmdz7GlYZzIgl/kxKSEK++sN+E3wORTlUoJAngj90QNhNxD6jfgvIghzMhbiaPleMKbBvBJ9PbekZ5ihB/Dbj92CJ9/YhXvWrcAD217DD267GV984iV8ZPUi/Oql3fjePevx7V9tw+b3bcKnH3sJjKQmwzzHu1QMejySXYk413aek2Cyr6A1Mda2cgp4dN2UdTjReBzVDRW9vA/oy/3G/MmYPzkV339tDw40awjaZBRKkpCQbQbD1OjpiE2PxoH3kIqBu9deJkttxL+5ITYYsreJyUpAY00DdL8iJQhDxE5WGyUEhuLFIG5vNpbkpeNEXT0a2juxOsGNG2bl4olT5Sis7rjMHhw5gjAncz7oFCMCQFbwwktbB6MocIrC/7g0DS5Vg8YU2OQKxxRomgqVVB+OuxaRDF6f6vCLkwaVDr+ujVJYdNMhYFvC9Y42UYNc8UwLptnB3e+ChgGDwtMxclXSuaFnrVWN4yUUibA/l89RmtSeryEvhBVb8Mw7T3MJQt+y0B3EvRvW4J+27UKAAuMwi6uTQoVSCG9efiu2vfNEvxIExlzIT85DbHwCyirOoqq5CjbT+B17bvpcnKwiYzcNhnOc9mcmeHlUSDXBEM0s/OimBWhtasXFxibctGgGnn1zP76yZR0eOn4OS5K92Lu/CPfcuBJ/OHwK8/Ly8em/vMn9+8NVM5BxpmYRUSL9vI1YPQExuhelHRWI1+KwbM5K1LRdQOGZkwganbBpbV1yAF25SiX81aJg7bSbUFRfiKq68l4EgTwV4lgn7lsxG//x7gnA0jksNOVEdcTKIIIwA7HpUe8pghA+jqPzRMg+RI/REWwPQDF62IOMTheG/RapYhg2dOPrwaERBIWLKP99zWw8frYWp8oq8PDmaxAd5cUX3y7G8dKayzD0yBGEpVNW4ujJAwgqnQiqnRxo6j/d6UKFTBJIBNz30ki35UuLEOmR4Zu4A4s/3UX8XZAIcREVTnW68JZzzh46gygEdYydhEUrluD1Ha86luFj4I5JRorX3Yqntj8FrQ9BoIPtY9k+zJw3Dw++egBQNXQGOuEn0uMUQRDIi+EJLrr3unycNFl2sCtmAPnSuw0dkzILsHL5WhSeP4Ajp/cjVU9Dcc2RKyIIChk32sDalEy0aQZ2VjUi2jDx4I0zcf5kCbLmzsOp0ydxtCWINfE6Wr0+GAELr5TX4lQrTVjo8Bv6d9mXIMTo8YjS3ajsqOKEk9ZLQcoszJu5EEdOH0JVSxmaWpv62CSMLYJA0oU10QZuXDofX311PxmJQGc6TKsnQYBDEN5bEoShzPzVkDIQQeD7SSgpg0371hjYM4YAmCQIQwDpvVBlaASBLt8qlrFWrF6zBnWnD8CdOw11xwsRzJqOp4+f4lD0L8mNHEFYmLcUhSUHEFCDXWJ/Iervffrzmz//ad8Dv+eMid+Ks79bPN7XzYgH5LlkogUh4T93Bq0wC3FGIuYtuwZv7nlzDBEEhi3Xbe2XINDIJqt+fGXNHKQlZ0NTLRzpNPGNv77Bb8V06ySCsGWFsEFI8GShIGs6XKoKXdOhax74WAzclhsutw7d60FKVCIys3MQiK7HL//v5zhTd4KvHdPRc4cv7RcHLUl3bKZyKkixD6KYhTW+IOav3YAHnn8NiuLCZ7M8OB+TiL+dqhKSH1oBTlCkcL5V4crYva5iXUlwuzRUtlWDYt2ZJJpXANXyIiMpEzmxOZg0KQ/bD72J0rrzsGBBc2IpWKR2Gq6OI5xO87oDSxCCzI2VWjO++8Fb8PzZSsTpLhS1GfjL7iOkD+paywWxMxGT1i1BmCiBkkZ7nCHDb5o1d0oMmhuboRkhphD2xI/6A5IgjDrkV+eFQyMINiymIDXYif/eugiZKcn4zEsHsSTYhKb0yXihsLiLIFx6AESGINBGPydrEUoqCtFuk4W6wKv//A8RxJKrKYZimMcQZ8RjxsIZePfQrnFBEEQS7wBWZcXBamNor6/CDz5/L275xRMImCJYEBGEW6+7Hc+8+RhMiofFgxeR5EWFaVk866NPj8a01AIkJaSgtrYRJyv3ocMKYlLKVJQ2lXC7DDo0Q1ESLzc7femYCJQk6JjQ/RNBoMPfxkyjHZ+67SZ84/ndCNgKVmgtmL1oER7aUwhuLUG2IqRj7zfi4eXmtHd8g6SoTGgaQ1lzBUh5QqITEZ5Z2MMQWYhCLOZPW4SY2BicLj+FmroytHW2cHXY6N0JByYIBmNwmQFsTGJYdc10+AIGCuYtwe0PP4EO/tGKAFLT4mYjOtUrVQwR3EL6aypEEIgS+LLiUF/XAMU/FBPgEe7YEJuXBGGIQI33aiSez4rJgotdLpsjbceks2f4dEES1Lh0/OLdg3js7jV4YPcZHD5f2QXDyBEEC9NT5qOyqQRNQZIdd5fBj++hzVK/7QyJHAhpQqyZgPxZk3HwRMhFLPz78tB6OvRaFDxny3Wb8eTbT/YItRzqF8NspQM//uBNCHricN8fn8fjH16P9z35FqqbAlwCEyIIz775OExNJOQivT7ZZJA4lBL6TE6djmAggJq2KgSJQJD7JBiuSb8GdS3lMCwykROHOv8/2XSQEWSPg7unNIYTCcdeRFia8LjHZEHJbQIo7CHZl6hWJ1LdDGXtwrfAZ7YjyutBadAkyxTeNyIzoikyslWg8rDgRHhFf+iQJ4NKKmSnoqoKvKpPhHHWGP+7z52ARqsGpbUXufsm9YeHaSajVt45QkrEjHDBhRRvOibnTYE71oWdB3ehzWgWWSlsxvsvpFuRL+Sxsm76ehyrP9rLBoHLQogs2Z345R0rYUfH4LuPbMN/33s7PvvsLpQ2tvG4mdSxmXGz4E314uCZPdy2J1JhlkM3dGEG7Ojr+FpyyAnHlPK9cH2dYzhJ/y3qkoqkJ3k0bBFl0/k1tB5xNkj+06VYEs2FzI96yApD+TfEu2id9J2V/ueo+6c9DXPDnc1eEoSkKLQ2t4LxbI5Xf88YylgkQRgKSu+JOioyYjKhKxouNp+77IZAS5e2R4MODhMocBkoNl2g42DgEhkJAgXJmRw3Gw2dZWjsbBH6/zFS+AbMgDgrARn56Th+vmiM9Iw2Rx1bV2/BE288Do1HHey2pKDDcabVge99YC2io6Px9WffxPc/dANu++1baOwQNh4hgrDtzcdh6EMPBWvBxKz0WdB1nW/8QSd1sMBKHKyU50AcroCmiYRfIlajkNrQHx7w2SFpXT9jZJjKjzQu7ic7A5WZPJ8Db83xJmGqJtrghw64zt3FPPzQV50IjDyFuSrIr85UdHR0QLNd/EAho1RqL2AFsOf8TrR1tA6amyB0oOqkZLDdmDltHgy/ibZACy5WnUMAnSNCDjjBsRWsnXEzjtUdQWUfI0UyMs5hnfjR5iVIz8jC5//8Or61dSn+4aWjKCEXOzqpHYIQlebFgdO7I05jKD4JSYFy0nPg02J5+8GgIQ7nUG4MWgGc1AkCapk2omN8ghyE8kJwAmnBtANcMkXP6o5RsKBfGoIWA1NVPoeclInUHnzf4DV6xGvhkrI+X2z/pq2cMgvC4ZCY+uZa1LfWXtH3LtxMSdoVskq4ouZG5WFJEEYF5rHwkqEThFBvyeBPpQ+Qf5TOrW7AoUSSIMxBq1mNmpZ6cZMcQ4XOoDgrESm5yTh1UdhkjIVCBOG21bfiL68/Jg5hhyDQBihuZQFsSo3C/7tzPZil48e7DuGvh0p4dD0L+rAJgri9094tvBBIRdWzkKGf6tzzaCZ5SiZSB/Q5PqmNSx1HhYdKqFCAILEWu4mq42zZ6500XnKL5RTJUV3wp/haIqmCqE6HqTBaDRm7Ct1wOHpqISkIivbgQpyWiIWzl6OxpU4cvj1dRbp6SR0Y/rqm8d0wYwMK64+iora0B9mnsfnhMnX8ZHUuFi+Yi0df3oPrV6/E3Q8/iw4eTVGcniRBiE7zYj8nCJEuNjyaBx9Y+WGcqzovhEJ02NMZb1o8gZdlmvwSQoWIZSAQgKISYaCkWkQWBZkzbFsY0xJpYAY3EuariBMADYsXzMKCBbPx2mt7UHK2vGsg3CZEsaEx+ha6yyUh4klq0e/whYurwQykRqXA9HZiz+mdgqgMq9iISY5HU0MjlP4tqYfV6kg/JAnCSCM8ZtoPjyDwOx7plPkGHfooQhbbl4rpgMgRhKkJ89FmNqGy6eKYJAiJLAkpuWkoOnd8zMwuEYT333gHHn3pTw5BELOWqwIbFs3Fb3cXIku38In5k1DU0olnisoQ4KSPlAAU10LYIIQrQRgKAN2moUOpfWkdOtC7xfUi6HK3cWFIUkLPiXUpPFxE6VayCMGyoASRLyRJISyJmJBEIdqXjIKsAv6ulkATjp8/BihBwNY5HRFEZ3jiMSII62bcjOMNx1Bec9Gxk6AIizYmpSSjuLoaKaqFT107GabixSNHi1HewXvIB04qhWkxsxGbEYW9J9+NPBgwuYHrrMzFOHBxj9N+9109hL9O0hu6hNCccKJJJKD79t+3YyqpG7g6TINta5g1czbu++wn8PVv/Au++tWv4ze/+j0ulJ1HZ7BN6Bu683p39SEUT0Uk4xKxT7h9Ux8VY8hjymRBJLjSEOuLxsWGc1e0digOQkN1DbQgp+0jgHvkm5QEIfKYjtEWh04QxK2TwQsLUb4oVHa09zHGG1mCMC1pEYJaO85Vnu6OHz9GUKUgRMlqKtLz03HkNLn2jY1CBOED6+/EIy/+AZpGVoYKVMuFdKsVD3x0Ez732Iu4f0YKkj1uZGVl4pPP7EIHEUCFDpaRJQhXihAdGiGK2vcGGJIBcDLgSJt66n1D7+5PlDzcu2B/4+HGmZSlktsAOKoVW4VuupCTOAW3b7oN2955DqdrTiLo73RicQwPmZCKgSIpEkFgpNZhDFmGH1/bfD3+/sXdWJ8bj+/csghPn2vGAy/v5/EqQkmnSGIyI34eotN92Hti5/A6cbmnmMHVOJMS5uBE3RFHTXjpnsElBJTh0+hWLwmpT4jdORk5SWxnmVAUSilPUgEgISYGf//FL+FHP/k5ykrLkZqWjr//hy/g3x54ALZpQqGEZdwmoU8wNa7eIlUHWbMIcknz1dNskNM3RxJmsSDiXWnw6V6Ut5ZdEVYxGfFoqKmDxtObjrFAawOMTBKEK5ry8fMwMeLM6Ex4FB3nWs4OaIMQ2kgpfv8P1s7FY2cbsPtchYgTQGJgEgFyvXDf209kJAhkVDYrcTHg8eNEWRHXT/a9DV491Bk3cMvxTEJ8ThwOnRo7cexJAvDB9XfhTy/8FqpOBIG2IBOaDfzzkpk4WV2Bm5ctxFeefA0/uOlafOHFI2ilnZiiVvYwUhwJCUIk5iskQei76pw7sXOz65YN9Hc37//ZSPSOzqJQT8QXFDK0E8GJbMBUMDVtOjLjJiEhLQGHzu9HSdlJHstD6KWpH3RYCdsKsuoT9jc9ZSCir2QkedOcTSisOYyy6gv8WyZpH4ne/+O6qfju4Qr827J8/GzncXxh3WJ89pm3wVRftwQBCmYlXIOoNB/2FL3j6P3Dl6x0GTY6N39+aXfgpCBm87KWYe+F7aHTHj7Twvr5U/DMkXOwmYmP5iTggB2DA2WlUHnAKsoZolEML2jc5sDkhMvQXOg0/XApJtamx+JDC6ejrVPFqyX1WPGJD+M/f/ifuO/Tn8B/P/QzGB0BdFIkUVuDphjQSR3BkyMxmIqFT09LQKkShzePnIOh6rAZGemS5Efh6bksBKEwdxfu9HWk+zKh6S5cbKIImz2LY33pWEcKQ8r+pUJ8FondmoKM20yopcZ6kQRhrM9QhPpHbo7Z0ZlwD0IQOM+3gRjLwoufuQGffu4IztW3Q2EmWv2dgiCQVvkSq//IEAQKXjM3cTGYL4jCi4X8VkaH3EiJhsODV4EKjSe6ic704ODpveE9PoK1yfjsQ+vvxh+7CALdZsnAy8YNsRr+8/3X4eEzjXj0rV34yR2r8KmnDqHTVp2DiSzzlRFTMYzgsMdX03RImRbiEIVVszcga0ouXjv4N9Q31qKlg8TipGOn4FTkyGHB5/bC3xlwTt3QrZPIAHDT3E04Wn0I5VUXHPdOBSaz8ckcDwqykpCckIYvvrIXP7x5Ee5/ehdMjdI9hwrDvPjF8KRp2Fe0w9Hvh08QyMPD7fZAd3vQ0trk5K4QxoNuRcOiSaux48zLYkOBhW4dKq0AACAASURBVMn+Dnxmy2r880u7oNg6/m1hCnYG3Zgeo+Ka/Bw8daIBzxw6hWSXipsKcnChsx2vF1fiI3PSsCQ3BU8VVWNNrIVlC+biqy/txanqTmQkxOJz938RR59+HGdba/HG2TLclh2Lm2dOw/MlVZitWDijxmDbkZPYMDkGSclZ2FVYiHIWjfU5sWhSYvDSiSJEawquz0iFN8aFl0+Vo9Wg/Yy8eRRkRWWDDGHPN58VbrXDKISA6lEQ7CTbC517w4yHEgGC0FN4RzodYfIjXIsGZlQjBQ4/SMiimRtNCSHS8KZ0pHp4ddoNhyBQD10W8PFsNzavXgpbdXP95sdf2I2a+gZYTPjO9y6RIwjzU5ZBj1Ww/8xufosKiZVHQncc3myQdbaGKTGzEJPlxf4TFAdhbBS6Vd61/l784YXfdEkQaFMmvXOUEsQN6Yl4u64TS7QWzJw9Cz/dQ8ZjqiNBoCiTI2eDMDYQGhu9oOBM5A1kWwqiXDHIiZuEgpzp0HwMOw+/geY2EanRVhRMS5oOLU7F8ZJjQjHfFczLxsZrbsWRqoMo60EQaLfN9pj4zW3X45vbj8JfW4u/37wKH//Lu10kgFCg7+iahCVwp2rYXbRD6N/5JhnasXt+aSLGaMgDoUtW4jD2+Lg4JLmSkZMzCRX1ZTh99iTP80E2CGvnbMTLh592DAptTPe3YOv6lfjxW4ewKMaFL996Pd7ZtxefWbMc/7brPF4sOovO9nb8z9alKC4uxfI5U/GtF7bj725YiN/vOY2CaBfeqmnCFKbgzpkZQM50/OpvB/CBpUsQaD6HZZPi8K03juIfVy/C/7xTiHQ3g3mxDBkrr8Ovd+zBLzYtwZ/3nkSlaeLD8yejorQKqZmp+Oe3TuFLczORn5KKJNvA7yua8WThKW6bQ5KF7JhcjtmFlvPDJgiEbkJmAupq6oFgfzFgx8b67NuLKyQIIWMLCoNrQlOCMC3hQ80XErfwHV1dSxwzMT07FSW1LWho98Pkvs9Xrm0Mx7J5LE51uASBRKMZLhOLkpNxuLQaX7g2H/sQi78cKIJ5SapnGnHkCMLClGXwJnnxbhFFKhxbQUXIv74gdh4nCHuPj4D+dpiLh1kM92z4CH7//K+6CAIZS3P6zpNTCQv9rgRX3EZOVCDyJwnCMIEfxmN9Ly00d6nR6Zg1dQF0j4qSi2dQ1VgNs93CTdfegItNF3C45BBMm3Tw4hC/Zf5WHKo8wCUIFL2SglSJmJjCy0O3gHhmIzrKh+J2k6ubQrsgvX9+wlJOEPadOsiNWslmIORqSrdmSvmuuEQAKkXRoKgUOspEgPmdoFE6NEWFRvurokO3XUhxpWLp4hU4e+EsatvKEONJxYt7/+pIEIDMYCu+fec6/G7fKdx9TT7+d89JFNe24X0Z0Vg7cwpavF68vnM3PnnjStS1BXCyOYA3duzFhuuvxTffPgqfaeDzKxfi7dIyeIwgvrlqGvaWNWFRXgrKattxsdnEjqIT+MC6pbjv6T2caCUGW/HA5uVobarHoXYfzl44iWVTcrAqNxvf2XEcpTW1sDrb8PMPrUG1E2fj268dQbVJ0lLys7CRH5uPoGXhYuuVEYRYboPQAGXixEFwCALFaLeDeGDTYrTawPajJ7D/fAM6FIaAk5u+rw5xJG6DlJjnfSkK7l1+DRq8SfjKsztQ39oRscxZ1L5pOiFhhxBYZxh7x4g9Ei5BoCQ2P7sxH3kpifh9eRCtpwoxe8G1+Le/7R5AKhNZghCdEo0dx14T/sgjhkq4DVNWPA3T4uYjJtODPcd3hNvAiNUnve2Hb/kYfv/cr8C4myMQ8qYS2Sv7EgTHytuR0EiCMGJTM6SGSXlFkk+fEo9JyZMwZ9I0NAdb8W7hDkyOnwY1Bdh7bHeXdYMgCPu5BKEnQSC1EnlTKBYJsVUYqjCc7HlNChGEmIwoxHnSoKk6lKAFFqB4BBaCpghBTQcsjxHBFHT624keoNFVA4ORGsTgqg3DIBshDbafweN3YeXStUhPz8SLr/8VyZm5eGnfkyJeBb97W7g904WbZk3G746X4kBZPdJtE7/+6Ca0GxYy4nx45NXtuG7RUnzz6dcRMALYmhaNjBmz8NXX9oGiJNya5sGy+VM4t91RdBaNLS340h0b8Y3Hd6KhuQWbcmMxZ+Fc3PfMXlhmkK/796V5kJCVjD8VViHBDuCanGzoTRX4zI2LYUYnYE9FOWZ5dPx6eyGKG5oxPTEKCdl5ePTASR50Kzc6D5rbhTN1p6/I94CpFiy6QFtk+zChVAwKslw2j971+JHTyIqLQ35CDP5YVIo3Sqr4B0J+qS7H6IQWqMHdq0SAFkbBT2iZOVEuxO8pu56Hs1qKnkV54oI8ZryGnDgd9SZQ304GJsL/mqzuXTbwlTmp2NFqI7q9DguuXYTvvUgHmhsWM/iCp8WskZ7PcaehT8FNC52ixoFclEi/Hoq+JipNi9fRDC8qmpuwOTcNr1Y0oz3QDpctrHDJsIj8rV2WC0FlrE68igzHBuH8IEaKNF86gnhwUSYm52bgtVoVUfVlaEtIw0+3H3Y+9r4UrzdBMOxAr+RKQ9ol+aFm4trkZYjLiMMbR18WkeGG+vCAlgqRkmLZUJiG2QkL4E13XzWC0BOP0CzQIXDvLR/D7577JQ8cI2R4oXGLLJ298gWEIso46kC6f25efhu2bf8LRLrnSGE25Mmb0BW7hfs23MyL7NgsxPrikZiUArfmRmxMPC7UFnO3RMVUsena27CvfA/Kqs+LaI+OYtdFxnYiwg+PGUCqCqFUCLkoU94KC/MTl8CX6cG+43sdpTBJIagd7o/BpUsWeQ442U65AoLbTyo8tTbPtMqAjPgMTE4qQIwnDi4XQ3HZCRSVlyA6Kgqrpq/Gc4eeEl9lKNIht9Ujl1CKvUH/VpBrBzA5JQrNQeBUYxvWZCZizbyZMGwDzc1teONsPXZV1jrGlCpsM8hTmtuaBs0ENqUrWDJ7No/W2NzSjncvNmN7WR0fD48ISrE+FGFPQDY5dOjTeZAY9CPFo6JV1ZDvVrBl4Rwwl47WtnYcqqrBtjOVPPB3pi8XiYkpOHpxv0ibPcyVqro1BP1BrqYkift4KFeoYuge4iQPww/vXI2DJWV48/AJ3DozFekzF+PTf9qGDekJiMvIxiN7j3LLUZWyi9l0pzUxya3iIgXOsHWotoEgs3FdihvT8rPxyP4LmBmj4R82rkRsQhI+9Lsn0NJm48tTvagOelHR0opDba1oDHr5Ysv2mfjhmtn49bEq7DpXh+wED2bGKNiyfDEe23sSz1+oR4EexLLcLLxWWonSThdUww9bMbh1usYtgV2wKGktD+9pIaio+No0H9SMaXhn9x5smZGNh0r8KGluhh0gggLMj7Kxat40PH3oLMoDY3XaQ26OOi42D+zFEOq9qTDk2q34n02LEJszBbZh4u4/v4zaVkqgJMLY9i59CYKfBzIJtxBBWEQEISsBrx3+G/+owyMIfT/fyLkUcYUZ0zAv4Vq40/WrShDEgdI9CyTqvWfjR/H7bb8EHILQ5WtNnhfMj5ikeBTVNPWxtBZqByLqm5ZuwfM7noStkbhZEoRw126k6rsNF9Zdux4x8dFoDxjIT5qESblTkeJNwvce/TqKy85h65L3YV/FHlyoKOkiCLQavKaFVlXYDDATXD0gVkno4kKSARMLEhfDl+XB/uO7ucqArkQUzGiohdz/YKtI8qTDraqoba6GoVgwWBDMUhDjSsSqadfjhePPDBjLRHzbvb9uWotEZilWAx2h9McXtDkpCXCyIwK3hbKvWrbbCZJBIZlNEVfBFPU5qekzoEuNnYVKRvTEBZ2w4CHCeUgvTjqSXbm4dv4i/G3P0/wiOrw4RzZis5JQV10PLSiyy46HEjmC4FPw9U2rcOH0CXx46Xz89vgF/Hx3MT5aEI/VMybBrev45ekaGPUVuD4/B16XjXPVTbhl0Rz8w3N7UFVRg8/cch0K9+3DB69fDH9LM95uZpijBHHNjDx8++X9uFBejq9vWYxZUTqONNgorGzCs2fLcaGeDi0/8mMYHlw+CaovBTUBG4fLLuCWWdPxy91HkRIXh8NnT+GBzevx4rESTM9KwMGqVvibG7F2Rj6OlpZh+fTZ+NgT78AfDPLb1mTVwDe2XIdZ0UFUW1H424lSTE+MxbvFJdh8zSzsrOvEhZJzuP+mRagtv4Da2Ax88Ym3+eLqds4bK8sgPIJAvY61TSQqJjLjEzA/Lwk/OVIG1Q46LlV9xxUeQQglWBbHv4huR2yfCMLilOWIz0rAK4deHBJBEGF7haNZyBVTbDxOECBYiNVdaApQBDZKK0zBagIwGTlTWXwX4b7QtBs4kq3+Z00QhLlJi6AnK9h3YiSCzAy8XniKWFuEwRahi+kmJDaa/ggCxTcgTNJ04PsbFsDwuHD/c3vR2unv4YrXTRBuWbwFL+x6ErYqCcLV/GpJJaRTBEA+3U5OB+aCz+VDkLXB7zdx29L340D5XpwrPwPTosOMpD423LaJf1w8BXpcMr7z+h6oluYcaP0QhEw39hXt5msqXIIg7LrI6kFIcIXEyYlIaZvwuKKwvmAz3jr5mohg6cQkEFIKk0snunSVXP/MuDqD1rMIYKRyWyda6RqPZSByb/J8Gk5+BooQxeAWBJeLzIRkOGQDZxGh6MEQqJc8qVYPHiRCZzDhVkl/LDcPUcDdUx38k1zZuO765XjqzT87+8zQryw911FcVjzqq+uhBoRx8HgoESUIP3jfDfj4o6/gQykx2LB2Ae5//HU8dOsiaC4FAZaAHzz/On582w344et78cWVk3CougOL89PxnTf3Y0GUglYzGhvn5HDwFLcXn35mJ5qbO3FbbhI+sm4BXj1bh9+8/i5uTotDQ0o2Xjh2WhjJUN4AJ7HLXSkMTQm5eONkNVb56nHHxo34u21k7GZhkQe4edECPLD/FO5OtHHb8jWYrNbDdqlotqPxbuFZfP9oKRoDHfywUC0/EpmJG5O9mH3dWnx9207cPzUW961fjv/3yPP4p3veh5ILZ+Bv70BBdhr+9fWjePtCLfcACCpOQI4xswrCIwg0hu8uzYOSOQUP/m0nfrrpGtz1JIkjB2K+YRIESpJD9xqb/IHFRkMHGn3Ai1NXID4zPgyCQCosjat6SOKjWaSW8nP3SNo6Ek0/Hvr4VvzdX19DXbsBzWIIqJRsiLw1bPhVBYyrmej9gHtAci9sEGanLIYab+PgqZEIU9v/gqEtye2K5brXQKCBJzSyKMmOMx/9EQTdSXp0Q4KG6blpSPGq+K/j1ahrJUOzUCSLPgThXSlBuNqfLB1kYl+jIhYjHXwiEiL50TO8b8n7cbBsH846BIFE4UQl5sVp+PKNS1BTWYOv7Pr/7H0HeF1XlfW65TWVp96Li2y5SpYsd8ctjhOnk4KTUP5hBkLowz/8dIZhgBlgYFJggAwMZRhgCIT0ihPbce+W3CRLtmyr9/KkV2/7v33Oveq21Ut4x5/BkW45d99zz1ln77XXPgtRdUJjfKlrAITzfAyPHCBcD8hy4mth2gYsXLiYER0lSYIkS7DbHYzzQMRIyZToJl4XSS/T4KZ6GMGQwuptUEooBwE6q7Mh22yw220s7OF0yLBRiMHmYF4SSXTC1i+Vk2qAcJKl1Wjbphk0T/V6NglMsBqk9P1rVOdDg6KG4Pd5GSk0SDUeJBv+su8lXG0qZ6GN0YociXYDSkCBJPZNOZ3q0Xb9+48bQEgQdXz8pqX43r4z7GWuTXAi3hWN9yybi9+WVqO8thlLEmPxhY2LcOhqK1ydzTjnSsHxs2fxwJIcnOsM4K0LV/D4bbl4qVbBwcpWZMRF4KH5SUiOd0L2K8hMz8CO5w8g2+9FdHIq3rzaAJsZyqGJnZFv5ABiMrOxp6oNeUYXPrDtJnxt90mGWONDIXxmTS5sTjtqvCp2V9ZiW04GSi7Xok7XkRURgfMeBY0BDYbOShUx5m6RU8PGojz824FSPJgWDZ9NwL6qNnzhpvlYFO/G2/UhvHn+EjIjozEnNRF7q+pR3UGVCCfbjTSQH9335XOA4BBsuB4HwTrDaRj4zdYc/KZRgqfmKu5YvgBf3lVmcj54PLt/GwogcPDWP2mKq8y5JDdWzluH6KRI7DuxE52+Tj5RUYjB9CC8VUwhhoFOyMEDmvT+01w2JMUm4uYF6Xiu7AouNbciJ9aJ1oANXf4gZkeJQCCI2OQ03DQ3Ge9cbERzQw0W5mbjcHkjClNjMC8zDb8tLoOhXCs+yAHCsrS1MCJDOFVhyciO30fOi9XwSoh9G/1XXHQyshNyER8djZDWifOVp9Hh7aLyhEN6EMjwJBTzzY2LsLOyCSuiJbzQGsSZti7YmZw9995YIYY7Vt6F1w49Hw4xjN/rHNWV6L3wapT9AQKfTbin6/4VD7IshsraClDFQ1GXoIg6PjMvHhcRhWVRAv5QdgV1PkuzpC9A0FEYvxpR6Q4cJS+Y5VYfQYjh+g9GYEWBg4A4cbLYMKNF2VJTNMNXjIPQX3JtoNAQl5zi8xql5XKyIx1Fz8MBE4U6COJYM00vJOB1QnoahQ4MrcczwazJPHLcNj2hA8ZDM0MUVHhKEEnfiHkoOCAfZfjN9KTMpMT7cQMI3L3Lq2lxvipZX8faWBv+/qalcDoltnPZXdGKZyqbsUj34hN3bsCnXqFJlvAvEKIUMpuCL2/IR1K8C51+P45dbsbuC1cRGxmNS/4g6lSJE2fMUrHMLdynKAuLpjG3KxEaCW3TYsZfNqPqkGqnSZixihBZY4i7vQXYGJmRL+88VYzrdbPrWARH7tBDjqjjq5tykJbghs8fwKnaTvz8bC08IU6OGRzzGtWccc2T6PrsedgTU1yQyElyTxVEYnpYLZPKPUNClZcTm67X6LqFuhfffOBmyA4ZX9lTheL6WhbnG7jo8+sQQLDjlkXbsafsTSgGkTFsiIiK6rEBmx5Yep0BkRWBssNuRKJw4XK2w7hUfQ5NvnrMjZgPd3os3il+i1foo3fXpzTwwH6T5+GB+CA+f/9taK1rxCsdQSRrXqyalYpj3TreOFWBzYtycP7UKXzpgVvQXFePfd12/Gr/Sfz3QxtwuKYB8+IT8cSBchxv6+rZlTON9r7zi8lBWJm+DkFnACWXjrEx5o6KZiPYKifLXKj0IbAJyZzyzMmX5ZOTG5Tcp2aZXSoPTKELUp+zWW5VkcY5HStDklhRYwgSqcH5oCsyEhzpuKXoZhiygR+98jj8fg8+fN9H8fPnftLDQZB1GfFCEC//3a3wKyGImhf7O2VUt3Ti+Ys1aGjz9EyMjIOw6m68dvA56NOGgzBQnpeN9uuOW6sS5MCDrjd+xveLnNir8dqHIh5Z+X6UNJxARU0Z43PRMkeu+F/fOg9H/VGYLXlxqMGLQ01+dHr96A4RJ6gXFBbEr4Yr1YbjpfvZGOVVCaaiWTPkKBdd1uUBREyToMOhxY3DAdadrzWyLL7PaK1jXT8mMwEdLa0Q/L1r0mivOVnnjRtAYHhgQK8prssGnUjDl8lfs+g8xX5pZ1PkdqC4qxu6YWfuYcok0BiBVmV626pOMSiRuYyJNEcSv8zdZPQ6uq09M1Wr623cvU9os//ulR/BotOmx4EAhNXIJU2tf3EY/jPrKBYTZMEp8i7IvCKcGeqiLAnCsXRXk0g8aQAhMSYRW1dsw6t7X4E/1GXuQKn4SS9AyIrOYETMap+lvna9YaYjXdbwmc2rsTAtFk/uu4A9ly2AwMvN9G8qYNhx65Lbsbv0DeaxmZuah/i4eEiiBIfLCZfDAYdhhyjaEWHYIAs2SJILhiYhNTYFqYmJePr1p1gZXuIgcIBg2v86AIF68rnF8ciZMw/fff5tfGLLMty+MB1/uNKORRGROF7VguQoBzzNLViweD6+8ew+fPyWAvznvtP48b0r4U5w4x/3XcGe0stMApaNHTOWORRAWJW+HkGnH8WXjrEYb1p0BhwyuXIp9YvzwJnYjQkQqBANr3bIVR0YgYyJ3lgSuzToOZSznJ886krjWGLCMyxyK1JJWyDCcGLz6q3o7lBwtvI4LrZegKaG8JH7Hu0HEGCocOoyvrA0Dc2REXitvAJZtkhkRNixsz2I1q5uzlZnzzodAcJAQDB+hNPJmmDH+z58QyDikRWPoKThJAcIDJCKiNJU/ObWXByq9cGmdiA7PRopCXPx6wv1eO38ZaaAyomrAgri15oAYc8UAgTr/b6736sFENyZ8WijYk1BqwjeeI+O8b/euAOEfgsy24HRNEe7eomJedBkRMp47P+ZC1+h6HMPgqUUQ8rl5Ualn1ulWOkcLgnLqnmZM7d1P0qd6QsQOPOMlnABQVZznOvC0PX5zpDSdKiwCrm4rGWAV4IbLCPch1PCXGIGliXF4KrHjw7ie4GIezpk0QbN3JnTR8yETcwFgXaTrK+sI3z674VU5DbkxLN+bRDispzC3FNjgR1acGixjQzFYPOGrWhrb4Qn1InLjZVo87dCZ9cWke3OhKQJqPbfGCCQN+gLudEoys3Ft14/goqQDSFa1ExS3FAAwdBtuHUJeRD+AsVQGBAko1v4nsmUamQRBcnudCS706CEQkhPS0PppVI0dTZCRBBL04oY43f3qb/08yBca/jT4rnAocDuTsDFRg+2zE9GV209tiyZg5uyEvHFg5eRJCjoaPNCj0/B6cZm3Jkdi/cXLcDvii+gtq4ZRYXL8IuDZ6CJnCLFiYsD78hJikXp66C4Aii+eIzzqdkCS8/K9dUtYlnv2VzNoX+whC7ed9fEf2tVB+Yeud5MBfrv7NgMpLtnIzk9FQeOHkCHXscANY0F0q34yP2P4ed//omJMuieRAQT8XCSA3J8In57oQ5OxYsv3LEB39x1EirjjvEd3FgAgqWaSh3uzTnpA6mHIGQN3q0O9BaQ9XrdxtZoH0/hNb5v7v2O+P6avkXSJLD2k/S1T3aocKiRznvKAKMg4KGiHTjTeAoVNRcYGKWXTs7UR2c7ED1rAZ7afxYOpRubF+TgtYv1gEZudL7hml4AwXpWa5YY/0Vuqq9ofeWuuCh0d3Yy7+l4juOJfL5xBQgj7Si5htlSSToI5oRsGZPyujm8oOJAw3N+sc9YJ0ILPzc16MendtyCr79yGAqrGMYJKWNrOgtBfCgvB8ebPTjZ6GEEuwylG/9vxwP42su7EFQV2DQHPrjj7+C0RfAlQzc4AUZRGeK3aporCiGMIRQnDREuRyQPv4giZElkz0WueEsalUItBLEkFtQhNzUpoNlgE+1IlFLhdNnx53PP4uWdz8IQJcxiAAGo8vECL9drqiChEF48fucanHHG4xsvvQNPkGxoTVQDz1YhwoGbF96Kdy4QQCCPztAlTamvhXOKEPIpqOu8jC5fBwOMFixclrwCMelx2HNqJ2G8GzY+hjjwtA53aiFIggNP312Iz+6/gs72VgZSCUwRi1kzJERHavAHSEyFUr8IwBI4vJ6zlXMQCtPXQY0IouTisRva8Yadv+EBHNyR2V0y0asF+LUgDCZ3zWOq1GTdgY888DH87NkfQ6Dk8D6qiduibfj6w3fieIsPly6ew50Ls/DQCyfQQeI4ZunhsQAE8pjYdSdUIcSK7lgZJGxBo/dqstCtR+U/64OHGXimdLVeoM6BiwWkrTNv5OzlY5MvNb3omo0Jhr/56LAAjSaaMWUTm7PYP5UdpnHENg/c9uQZmvrGYnMwYGNWeWj5AzjdVIyLteWmfSUGEO5Od2DLkqV4Ys9RqJ5ufO3eTfjMq8eI08pFxwi0Q8CyuLWISKMQw1R6EPpa9UbvduRvgBWxmgaCdtacxPvTA8lH/kBTcMaUAgTyBvCdEt/F91+yRKYAxsuoUnybDhQRKRvwavwTp7Oo/KeZ7IKlaSmoaGpFt0pnCbg1UsWj29fj/7x4HD72jXNvhjVfWFOFNTQp3MAgCatWSJ+i5ea1lMA4655qfX10WQ72Xm3E6c4AAzebowP40h234OHnjsAfIgKCZKbOmWEOmgTNG/HUOj6JG8SqpTj7kPUNblwznPJyyfvA1NRUIDN1NtLcqYhyRaKtuxUl1Sc4+1mUkGUCBAox3AggkC2WuAxsW5CN2MhIvF7fgUOVzYyDMHRcj96RAzfnbsPeip3XBQhkf1rMOYrm7nW+XtAsJmJJUiESMuKwu3hnf5LRNT4Qa7fNGcm8fSk/FfGxCZiVFo9Hnj0CTfEx/Q0GBhhQNBAiLgQtXgxoWYTK3v3/YBuRB0HCiqwNCDn8OH3p+A25HOPzTZs8G1D6LXFkWBCL2c4CzwRIH9vxSfz4macgEArsw8vZECnh/ZtW4Kk3jyA3ORKf3ZyHR146hbpuXgiIh+1uFGIYClDyRZhA6sM3fxCVVZdgF1zM60NAjAAtMcnZNzyAg8GcSTrlrpueE8okMfkmBIg5KY0LlpksNwbgePleAttc2Ied3QMsuLUtvgE71/o2KPSjkfiaBXB1aHqI9U1j4J0X50l0J6PBW4Pyq0TI5QCBPJdT3/oDhB3L78eZxmJU1FWYdpCgSwJuSnThX25bj5cr6hBlC2LjvAw8/JtdaFNoE2aFGETkx5okxdLdHBhPGQdh/CxrAQIGClh4e6ybwfHpmzUnRSbFoaujHVDGQHQcny4N+ypTChCsXso61xEPmAFnlVLWSChUt7OQgCD4YSeJSjjwjdtX4ScHTqG2i8hkMnJUL1KT43Gmy48ds9MQMX8JnnptD/vdJ7JtWL8qH5947iD8ugw56EfARkibght8gVbZhCtAEQCnTiIdYFwIwe6EGKJUOA2qqEERnIhSfYDNgE8R8feF8/H6+RqcUyguLOKxLBH3rFuN9/35CNNRoAWWUi956t7wPCDDfmt9DrQCE3Oz5+ODdz+KF1/9M85WFMNv98Ku2/rcW0K6O4Phknp/zQ0XNpsuICgHEaVo+PLaubiikiU3FAAAIABJREFUufGzY6UQRV6OazDjhOLvNmyZfwsOVu66IUC41rPSx70goRDpFGIoIanl0X3kcWoQn10/D0faA3itvLkPKOzlk4zc3nxHsmLWRqj2AE5fOsFFasaN/T3yHlln2HQbHt3xSfzomacgWdWtzF/G60FkigbWrCzCM+cuYrEcxBlPCF0UFqHSuMMKMQzczXNowNzyuoCvfOg7+MavvgabNHgxZUvbjbliPQ/fa08JkUIIUQ47mv0aAxyU5dK3cSZH//HYS7nrjW33Jyly5Yx+/BKDvEMiitLXA+4gjpcdHRbBbfRvbHRncu0LAQ8XvRfF9cW4WFPBPLBkBVILXJUYhfvXF+DbL++GL6Thh3evxb+/U4Ir3V625eHEVxF5MasQleHA4bOUAt4byhpdr6bbWdZ4GGrMmiBywBw6kU9gAYTozHi0NrVADg0RTp7IDozh2tMCIJCnwAEVH1iahQ0LsuDx+3Cw1oM5LgO7W1Ucu1CDRxZnICbCibvnp6M55EdNN1UuC8HujMCfK5rwxzOXkRMfhdYOD7bPTUdRdjJsXg86Y1Pw+GsH8PktRUiySTjlD+GpA2e5rDPbgQn46oq5+M3FFtS2tyNSB769fTUOX7qAW5cuQSAooM6n4C+ny/CVO1ejtLaR6Xf7mtrwP8fOYV1OIlbOToQU8EBJzMEXX9gP2XQVTCZAYPs4JooSYtkkBErIu9C7kPcHCBTuuJ77jZTc85wKnrx3I0L2GDzy7G60+ahW+sQCBBrLC+ILkJGVNCaAQLtTOwjcEdgcRpxiWB/RDAAIf3wKkkVkMJ+Jnv/OODvW37QCX331HagKpUUqbEHhLnQed79j1d14/ZpZDNcGCOQJ/Nwj38B3fvdNyEMAhKFNeyPEQH4NCfcnyyhctx7//PzbLNTGAUIvc8BMFhkAGug/rev3gvO+UQ1rURy4OK7J3AjN5cXJiuPTGiA8snIHSuqLUV5V3gMQ6JsnsvYcTcHHbluDr+w8B7ehopu8JCJ5K3mI7d0PECxgeG2AMKzPfZwOsmYfR3wkuju6WBhuLNuUcerWsC4z5QCBRxolJEDHr9+zHt94+wCqPV78ZPtqZKTH4PN7ynG5uhr/89AW1PiBFLuM7+85g7cb2nFHrBNfuXst3mn044f7juHu3FmwhTxYvnAevvfM2/jRvStRZouH90oFti+diwsdPlwOhvCVt04TljbZ5Bp+vW0eTrTpSIhNQpTeiUqPgaxgJyqUKPzPhQZ8e20KYqJi8WptM/50vg5uPYCPF+XhtWOn8ZWHt+Frz+zEU7fOQ3X0Qnzi+Z2MOU5b9ckACNd+ywOnw5F4EOjDUvC3GTI6bGl47/w0PFnRjMNXqhlJkdIoJ8qDQM+zML4AqVlJ2FtMKmyj8SDwRaE3qnmjxWhY3woPOE13D8I1AMIDKTJuW7cS//bGCagiAWMNtd0BlpxKIbIegHDoOejXUFKMNCIhu+zw6t1QQ9bkS+pzMj7xwD/gP/78vR5S6XAtOtRxNKGyq2s6vr8iDcacufjyswegk2yw5GfZMjQuJFLENEi2neUU9zBemLt8FF47GiWrMzdBdXXjxDQHCO9f9TBO1Z1CedWFPgABcGg6bnMbWL6mAP/yVimorKOoazBIeIhCuoxoTB6E1YjKnDwPwuRWw51eAMHyWbCNm0YcOaqMOTPalAMEMhPLTBCAf9+8AILTyVjufp+Oy/V1uKVgCTRVx/cOnMGZeg/+dUMuTiku/O7kWWyOdWJOWgxiYeDBtSvw7LFiLEqMQ1JsBDzdAeytacKGlDjMSUnGz0trcLGpGWVtIXiCXiZwIIgkshHCf6zNQt78BSTaiVeuePD9fWdweyxw15YNaOjoQGKkAxXllaiKjMczpyrgNICPL5+DkotV+ORtq+DxB3Csuhl5SZH44tEaeDzdPFQxCSGG4Q+z4QMESwZ5peTD392+GVcrKtHkiscvi88zks1EA4RFcQVIyR4LQBi+VUZ25AwACEOEGIgsGoMgHpiThMLUeERF2uDMnosP/eIV+GlnaRZNG0ooiVzzxCkQKeWYajokzkakPREpGQm4eLUUlc1XIKsCPvyeT+LnLzwJQRqfqY/6tFQO4Sfv34qT7Ro+9/wettgl2eNR7/VCt8tIluxMn7876GeIwlL2Hwmxue/7p2VlTeYmBO0eFFeeZDymqWxDkeysEMP7Vj6E0w0lKLta1s+DQInWs7Qg/uPeNWiDA3bRwBm/A4+/8Q4TCCKAQJbKj12DqEz7uzTEMB0BAhCZEImuTg8ktX/6/VSOsRvde1oABJNiDLcWQF6MHXUhBRUhCYKmI9UmwaNwN6gMBakk2yy70EzqeDYVn9u4BEmxcbjo7cbju4/BLjgwz+WCDwaOtgYwS1JQmGDHBzatwLGmVqRHRCIlJgLfPlKFs1frIdtkZNs0eFQHDC2AZiJZEWNcD2C2HESEXcBJn4w0uwLd5kJVlw5BUrDYZYPPcGCOQ0TIruBom4bUkIYOG+2wSM6XE8hoZzbcLIwbvayx/Z4AQiYEzUCdr3rIuDl9VjY2JwoICgFQIZR7EmXckpuDJ0sacLmrlQMElq0/cPJUoWsytuRuw6HKXQhdJ4vhus9hAIsSliE5MwkHSt5mVT97qYcTx+UYnm2JpMg5CIo92ENSnE4chB//8YcQxP5eFxKejtF1fHTNfFwxovDO0VN44WNbcecv96BL8UFljH0Jt6+4E28ceRE2ORJpcemwS3bIdhvTsaDFV9ZtrCCPaBPgdrmxbvYGOOIi8PRzT+C92/8PfvSn70Ek/dwxNl6LQMX3bi7CleYmpM+djX9/4zB+emcBMqKj8PtLLTh6uhw/vn8jWgwR3z12CbvOX2GkYE5CHZ1rmc5dlbEZfrsHZy6fgMPlYhsJne2+NfaX1xLgrR+PgYm3WT+3fsvDmNyT1cNlH4IOONBmAhyiA+nJaWhoq4M/FOghcdNmShFEvG8VpTmeRumV0n4AgcCRrNkwKwZIcspwtrXiix95BA/9+hV4g72pmwQQojOdOHR2N+s07+m7qVl+qOnzTDGZcWhvboUUHJ6A03To+TQBCJYThhOm2Ic3IEXFiqZbg7jnI7UmBZHXGGTkQCoebZDMJ88CoMU6zSkjIcKGAGxoDASZ/G4vP5ovQdbn06u0yPtFLljOujfd1qbvmveU2MHk3uTiTQP4YdPhHbM+EPs+zZ1F6lOo6b7K0iUtNUWrwMnSaDu+flshHBDQJUroMkRO7hQ0FNd04BeHTpq8haFJipom4eb523D4yh4EdUrfvHEWxkADUTrowqRlSMlIwqHiv0Bh4TqeTzL1UxgR2XoBAtNBuIEi5WQNAEm34bGHPoWf/OHJQYOQpJTXCj78/b1bkexOxKN/fBW/f+9NeOD5EjR2tfUAhNsKb8ebx1+GQ4xGVlw2HKINXsGAopE7n6r0AXbRifXL1yFGjMXBskPw+/yo76rHR9/3CXz7V1+BPGaAwL+qexNlfPXedWjrDiAl1o2nD5zG59YV4NHXj+Mb67JxtsWPojlz8OXfv4qP3n8bPvzsXvhYympPgGLEpqf7rkzfjK4IL2oqS7BhyXZkxM2HZnSj2+aBKgcg0PcQsAMBMO3+TnsXurs8aO9sRYenHV5vF4JKAJqhsBRUmhWo9gAT9KVCQeTip2wbC0wIPGuqd17jgCISTmQnzMLirDxokQreOPA6vIIfROimFORHVj6Ic01nUVpVCp3VF6BNFPEMdGQghF/dvw56Ugr+7y9fx/fv34TPvnUcla3dHKwYAvLj1sBNAOH0LsYgtTQ3Rmy08AnDtACv5tje2gIhyDeOM6FNK4BgLdBWTvtAA1pSGj142yThcfU7S7GbfstZvUTKYVieiHuGHZrIsxQohEGLF5+KeEnRvo7RvmlzVh1ztsj2ARG8D7zC2EzgpF4PIFh2duoaYnUVNrOgM+0bbTYDsXYJLXYbKjzKpACEBYl5SMtKxcGSN1n5b4o5TzuA4AihuOLotAEIom7Dx3Z8Ej/5w1NU/q7fpyMYIjINL35wz3okpGXhx2/uwce3rsSDv90Dj0oUNhvzINxauB1vHn2JFS+zGByiEcHAtggVMfYILF24FGfOlsFjdEAhZUcDiNDd+MJHvoZ/+tkXmF7HWBp9kzelx+PR1bl449RZXKrz4Iv3bcMbx0/hgcJsVOtRSIWKak8HUhyABzFoVRV8/e3T8KuUQWExT0a+H6YveUXaJnRHenG+4jCg22AINsi04SAlV1WDQ3TCYUTAIdohyTJL43RFOJneicsVgSi3G06XkxUlstvtrDuKGoDP14mu7m4oAR1erw9+f5CRLiWbANEuwGYnb40Mh2Rnkto0mwXVIELBACTdhQULc9HZ3IbmrjacrjmLe5bcgdLWcyirKusBCBTSJNXZFCGIH9y1BmnZWfjS/7yGbz6wDR99YT+qOgYDhINnd/V4J0ZusbG86ak4t5eVNPl3p6w2XnxK7lMsavL7MbI7TiuAMLKuj/RoDiCY5kKPxv7Y3aEj7cVUHT8cgED2od0JrS9UDpkmyDjRj0+vmoM6xOMXh8+QK+Iae3kVhiZj07ytOHL1nTF5EBbELUX67HTsL3nT/KimF0AoSF8HwW3g5IUj0wogPLbjE/jpH344CCDQ/tQJBaviHLg/fy5SU9PwxTdO4HKHj8lF0s6TdjS3kgfh2EswbFTDpFcTkcYseZmYnAb7iDgvgWkICAYi9Vh86x/+Bf/wg08yz9RYGoVwUkQ7OhBi6eIkC7R9bgKcmo5QdBTeLq+Fohn4WOEcHKiowZWgxMp4+6nyn6lxMtr7Mw9CxkZ0ubwoKz9mChPxfHrSaCDvFv0/+8vEtXT2M5HEywa5wkzF1H6rLnkPuH3oPLKVLNthkxwMLBA9gEKAFMpxaBFwCA6otgDskU5kxuZgS/7N8Gk+PHP0f7EsdRnKWk+jrLq/B8GlivDZNXw6MwaP3rUJV9o8KO324x9fItVP0pSZKg/CYH3Rod6TZFDWEQ8T9VSH6JmwLW4B6eENd+42oJn1UNiIHpBvO9Tmjt1lAFqi/pDAHXtHZv2fkYwzupw9yo5At58BhKmqfDGSPrPNdWxs7LsfOJpWYRkT5riarqGAkb7A4R7PAUImKT0NCjFY1yD7kJgKpYCSbyTHZeAHd66FK8qFD/zvUbT7vdcFCLTTv2nOJhyr2jdqgECLUE7UAmTnzsI7p143wz7TK8SQl7Ia9gQZx0sPTSOAYMdjOz6Onz7zw0EhBqoXMtfw4uMPbsPX/rQXIQNQZBKNMr1gAhdKYh6EYy8DQxRrsuqTMA+cGf6zAEI04vHhe/4OTz73fUhSbynd4Y7NgcexBATWOVosyaUewqaUWBTlLcETbx9iY+LTBbPQ0A08W1nLFl1WHGscAMKarM3osHtwoeIE6wRX6SQFUV4gzioGZaUIX1+tb6iqoDzFjWp20LkEDEisi8EbVuKFZ2C4BBeKclYjxhULFUE0djWh7NIFeMUuyEIUHiy4H2WtZ/oBBJVlowiI0H34QNESHCy7iMT4aBysI7jlgMBKq9Nz9AkxnNnFf2bKeo/2nV3rPCZmRaJZTASNH8UWf1Zzp38RNlPo2hyVHCAw/2w/p5Q1OMwCOKYwVu+Y6dMTlr7LgRy7rwnw+nKGeiGH+XsmHEYCfP0NQn2m+r4yU6IcUMVtmEaLyY5Fe2M7pACVCrhWxdhhXmySDvurAgh8yuFtuPhzkt7DhN+G2MsZpKSoAtXeq+b9BruDucoBt9JHkg34o5Nx57wE/LC8HQcvNbCd49CIkisprsvegOM1+0cNEGi3NtuVi4VLF2LnsZdNgGAFlybcTNe9ARPEFiQsTiiAOy0SR84dmEYAwYGPMYDwJK9+22eUk8hYptqF77x/Cx5/9TDcScl462pbTyUCUiolgLCt4Db85djLMGyUhtV/bAz8brhDge+DYuRE3Lf1Qfxi5084gOzD1mPOctL57SEO9o4eq1omAx1Mk0HgtUxYoSuSGGd7SSZ6lmDX8a2HH8Cn/vhnBFUdG6NtuPvm7fjHF//SUxxLZfUGTMozKTVSoQpTDZFy/1mRLIOSqgUux24qMxo6ERANGJKAddlb0Ka342LV+R6RLkvhceTSvUN9KYNnnt6gCFdLpC8syZ2BGCEKl9uvwLATAZgAhcC8e6Tw8Z7Ce1Hadh7l1TzEwArTsyqhQJSi4jt3rcVn3joHKRBAQKJxS14isxKrAeTHrYI7KwKHSnaPOweBjQozzTTeEY/tN70HbmcUqERfRISLEVkpBEMEcVnmJFjqe33zVXQbnVwYk6lx0hgwpeVZITwDqqpB01UYos7+zSxMNtE0qCrJuxtMGZMpbuoinKIddocDgiTB6XAgMyKTh0lNThlxiFRNh6ooUIIK45WoFKrSdSiKApnCSJIEw6bDHRmDH//+KQR1/4gWEJ7RBsSlxaCttQMCEzCdGSvQXx1AmNolZuruTh9gtjsDkkrVHK+ak/hgd7C1FBO3YrXsw8O3bUbzpUrUOGLwP6cqeuRwBz8JBwhrs27C8doDCI2SpEhCOLPt85FXmIc3D73YW6N96kzXc2c2GYkylsQvQUy6G0fOTieA4MRHdzyG//zjkzBMyWKLJJoo6XhgQTzumZeGMy1BlHYG8bvSaoRo4Wb8el4EbWvBbdh5nAOEkYhL2QUn7l11H4JqiJ9HpF6STraqVvYU1LAWbA4G6A8t1sybZ5VkZ1tL+k8zR4D+TaXBdQOyqsFLCh2KYiqVG/BpvHImgQpel4IWQzqHsi0kCJIBVdfg133w6wGEVAWhIF9IRJFc/BKcYgTcUgwIFmXGZ+JA1W6crz7fk31kAYTJHILWDrv3ngTbeY1aQ3Dgnvy7UNZ+oQcgMG1YwUCiTcfXVudg3ZxMlLQrCMkR+L8v7EWQASPO0aBr58etREx2JA4WTwBAIOKlCe2TI9MR60xCbetl5pq3RPKt5yLQQ4dStV769sV+Qlh89ee1a6h+Bx8b3KtD1WMtOEhVdWmMUPiYX4d+JZM3lPHGeJiBNkmy4eiTVcbcBSSn1kfovz8dvicUYBjYuOhWHC7dA1VgFfqG3ayUd8EmsMw8QeNFC2dCCwOEmfCWxqGPwwUIvbfSmS7Ee7Licf+Glfjii4dxucs7DICwHsdrD44JIGTbclC4sgiv7f/ztPqQLICwOHYx4jJjcHhaAoQnYFg1svtIB1Ha4OdzE3BWE/BmTTsCIR5TZx5cqjpqiLh52a1468RrjIMwEoBAk7xTpvRgqoJIBd1N+ekeTwIjLgxQNzQL6Wg6ZJUWAfpr+j36eiFMYjCR72gXRrLmFEtWJV6gSqSqoeQ6N/P7SYSGgIIumomFNPDpGpydzKpEsUwCCKzWCskrM5c3lZQXDETodiiCH4pONST4uVMBEAYrQQ4ACHl3oqyDAAJVc1RZZVympKhqSAr48enV87CnsRN7mtuhw2VW0e31IOTFFCF2dvQ4AQTL82EFrShUyVNNY13JiHHFoa7jEquzQmXgybvAxh4rgyoy5VmDlD3J1qT2yGAQhQf4eCBRLwYVKMxjjiT2rFTFlCTybRICVHiMuDEG2UExC1NJDFgy7Qd2O342XZeRz3uoz9darXtJjVSPo3DuBpylzCWzautwp2Xm9SEgQmiFcUx4PZiZ0MIAYSa8pXHo43AAAvt8rIFL8teGgqdvLURqdAS+fPQqSqrqbggQ1mStx4kxAoQseS6KVq9iAIGWm+nSLICQGzEfsVmxODGtSIpOPLbjMTz9x74AgVuO76ZsmB2lIy/OhkeK8vDtw1dwrq6B7dysiXVz3i2sxLZOO50RaL2xiqJU3tzU/mDxeuvGPT3o+xYtnYJRsMpNb4O1s+sZrib+6HXdDgyK9HX3DzU79z2eFrDe/k4NQBg46gcChDtQ2lGOigEAwa5JsAsh3DE3DqItErbIKOwpq0JtwM/j/qYHYYl7OeLnuMcBIJDdLGPxaqMcrHF7xjgTGECo8VSyH6k6VYQggqYNfo2yYELYkJmFU3UtCDBPgkF6WJyTISrQJA0uhTxatNATD0CEZqiIEQXctTAbqzNS4FMEPHGkDM1BLyM1R6o2FtLSBLvZMxU2XYIqaFBEA27VwKoFadhb1Qw1pLDKqKxmDmWrkK4veRlo5jEBBdOyMCSszVmLwxVHAIk8UMNvNjOc4UqLRkdzO2TNKrY2/GtM1ZFhgDBVlp/k+zKAEJ0BSbt2iIEDBIOHiyEhVvPjw5sKcOJkKRbnzcNPDt84xDAeACFDnIV1GzbghV1/YDvB6dIsgDDHPgcxGW6cqTzVQ4Ca6j6KuhViGAwQSAfkCzctwCWfgTtnJ6OtuQ7nhDT8at8+tiunRu7fTUu3Ym/J29Bkq97G8J6KwQmzMuvwdkajEzKyejNyLsDwnqPvUWyHa7bpBxDsuCfvziEAAmDXgMXxMrySE1sTJDxctASvtup4/M0jvPAd84iIWBRRgPi5owMIPaDMtI8sOLA6dw0a2urRFepAm6cVqlmGnAEEZzxqusiDwOWz73MbiJy3BL8+dRqRqo7fPrQJn951GpE2B5LdThy50gRNCcEhAnFuN1q9ASiqhtmxcRBEFZ2NDfjdh25DvVfBt/ecQEWbl3EwImQJ7qhotPuCrKLu7NgYQBbR2NGBFbOScbymGcGAjoXxbvxN0Rz858kLqPUFkRCZgE6fH2rAz7gPsREueDUNvoAGG9OYoBCFjA2LN2PPmX2AFBiRV4kAAjUCCG3NbbBplMUwM1wIYYAw8rljRp5BYzQzhoSSSEnRKvfcn4NAg7YgKRp/s2EJvCTm0d2OVXMz0dTcid9erMZr5xtu7EHIXI8TdaMPMVA/k6VMbNu4BX94+xkeazSZ5P2hghUrZL/tQz8dDCiGIgQN/jzJoXx9MEKLqGw4kebMwKwl2dh/ah93p08HDTrNjo/t+Bh+9uxTzIXet9Hi/fH5sdi2Mh+X/CFcOXcOZbZk7DlXzlyfjENoCFi3aBMOntnD/LYjLVA5Cl/AjPyOpq7TfT0INtyTdwfK2i+iouYCLxlvhhhcGvDRhYlwp8Rj25L5eHHvMSTOnYevv3QAmsk7JcCzICIfKfMTsO8E6SBwzgcn7pH7W+JxftEa25x4yvkifZc2/r3YRBlOyQV3ZALibKnIy1+My83lOFhygHkP3M54VHdfYmPKrir411U5eL0d2FVehzVxBj61dRX0UDvsMPB6aTOev+qBEvThu9uWIsstYXenjFNnyvG1W5ajobkNda54lBWfwoMbFqKkW8YP3jwAVRHxnW0FyI4ADncDx89cwuc25KOprRkXdSdWpbrx6XfOoqutDT+8az2+tes0qrva8PXNq7E83olX6wP46cHz+ExBBjbnpKHREPHhPx0wwxM8pXdz3nbsKt4NUSZBruE3i+4r2mWEiD/DxP0mro0ngA4DhIl7T9PuyukxmTAUHQ3+mmuQFEXMcshYnRSFRBcQKQQhRkQhOjoavy5vQUV9+3UAAu1OZKzJvAkn6w4xqWVjFPnCZLQkKR23bdyO37/9e55ixiYtkrnlzHn+v4zqPMjG9ClzD6cZP+ZTnhkB54xoUtu0IuJW2hoFNInsZp3V6ybtBQ200EqIQJKYitn56dh/ai9jS08HKW1Bc+Cx9z6Gp599ksV1+zaakBaIfnzn3o34p31nsCkjAf9bWofOEI+78+JyItYsuAmHz+6FIJPI2PTx3Ey7D2lKOtQLECDIuCvvDlxou4iLteX9lBRlTcRSuw+/+dC9+E3JJURIKvZXd2FvbSvLymCJgwKQG5mP1PmJeOfEO8hKy0ZKQkqPdDQR6SgrgKSlAwondVL2Dv116A7YSHqbZReIsNltCCLIMhIE2YDL4USkkIAVC9YgaATws+efgMsWjWrvZQ4mNAVfz0vEUS0GB0sr8a1tK/D0qWrkubqwNW8hjnkk7LlQgfXRKu5ZWYSK6no02F1Qay9hV7uBitZu5MZGol1zoKOlGR9ZmITVmzeh5MRxrMtJR4XHC09IQZQrEgfr2/F6ySVEiRLek+ZAbVwq5ssKKgMyFkZKqG5twua8Anz1hT3In5sNT30V/vX+m3C00YvsmEh88MXDnMvAfQjYVng3dp54C4I4shBDz3CRJZbLSiG9mfJ1hQHClHzsU3PT9JgMGCEDDYGhAQKF3N6bk4JPbVoGp6TBY5Nh1yXU1LbgW7uP4Xw3zwcfunG39JrMdThZfwQKSc0Oz9886HKpzix8/P2fRmd3C/s8eeM7HNr9UKolT6Kmf/PJqodyRD/WDQT8Pp5rTuJPhsrSEYOhAEthCqkhKCp/Fs605xqZpJTHTmDnWV6JPp+ymVNNE+XFlvM4e6mE32MitwPDHCoMIBAH4U9DAAQIsOsqvvfAVoQg459f3QO/Qs/Kn9ECCKtyb8LRs++A2NaMXR5u08gCgwFCWdtFXOoHEAQ4NQ02QcHfzo7AznY/6gMivApx43iBIPZWBQPzXUuRvjAZe0/ug0uKgkuwc94F+8xUjo+JSyICqhKCzjQUTMImSxHl4lH0LVDaKUFnJ1y4feN9iI1y4bk3/oBOowM20Y4Imxv1vioG6A1DQ6HahX99dAdkwYnH95zEqxcr8eHli6AH/QiWX8ID79kAtyTh6aMXUHK1EVWCgW8vTMdvGry40u7HlhgBX3rgLtTpItx2AeUtHkR0NuFXZyrQ1tCFZlHHd7euwlvNHvz+WCmc9gikGwr+65HbcKHbi8+/fgQfy83AlaZGPHbndrxyqQK7zl3ANtFAe1Y2jpyuRANJzYd09vyUuURE0FsK7sLbJ98eNUCITo1FR5sHEquEOjNaGCDMjPc0Lr1MYwBBR2OgdmgPgkEF83REGAribSKWuFSsKFiEObHJ+ObR87jY1HUdDwIt5TpWZ67FibqjbFEe7SLDHHCmckuvatnQHxWb8Ky0Piuv3XKZcuoyWwhjV+wMAAAgAElEQVQZg5nY0qxkMzcnTyWTmBeACaD0uFlND8NA1TW2nvI4bkgk5rzJxB8BoW9cXuRQF9Hs+Oh7H8PPn32qTxaDBa2IfCXBrQdx/+wkJM1fgH/bdazXI8NCDCJWEEA4t5ulB4723U3Y8/3VX5gHwJhGiSDhjqV3oLz9Ei7WUoiBZydQTRi7rsPQDGzLTsDti1PwTqMfz5+5yrxmPPTEg0HznIuRsTgZe07sYaB4qLLqfek/ltiQ2JOy2vtCqLrrugUbEOFw4sLVSjR2XoUqkQfRgDsiFqJqQ7vazLxU3PenYZFdguyMwrkOP1RBxRKnigeXLURETAQaWr2oKD2HezavwuVOPyJlCSk2Gd89fhlXPF5IuoLZMpDijkarYqDM48PtqZF4YHUhrnZ64UI30tyx+OXZKuy73MBIiCp0LHaJuOrTERSBdFmAT5GQ7TSwdk4yYmJisf9MNR5Zm4MmlbQOfbDbXXixvANHrlxh3/r6RVtx4NxBQAiMajRGpUajo7UDkjKE8uaorjjxJ4UBwsTbeNrcIc2dAdKvrffXmjH7wToIlooikRQ/GK0CC/NQe/4slq0qwPd3nbk+QDA0rExfg1ONx6Ho5IYbneyuxQXgYQT+ly/t4+2Y6+UukBveUpS71gvjd+dAhWMMa082tvoD4zFARN3BAMJP//gEE3bpbdyKdqiQDR1ORcV377oJn3mrGH5GxGO62gwgFM1fh+Pn9kKw004v7EEYj/cyftfoDxBuX3w7Kjor+wMECvJRyipEBEUZcUoA33nPOvz9a7yoWO/3RABhETIWpXCAYKobDuxrX4DQmzXSf1ywr1Iw4KCkUfoVEVqYGiRXS4yNigNCMtqVRrM2DoXxdEikkCkKkHQBPslgnkqBaRVS8il5CAOI0RWkGSraNREdkg5VimCpp5RCSeCDPB2iwUW9JE1DtOFHqgj4VDsayfMh2QHRzkKHohGAKjggCCoLCdIfO9MBEeGjUAnxAgwqi+5BvEZZOTpadKDb5uR2Ew0UZq/BySvFowQIBuzRLvi6fZCZktl4z2XjN9L6XkmIiYmZGT2dmOf/67mqAKakKCg6av2WB2Hohc1akpMMBY8W5SIlIRq7rzbjuQt111EQkwBDRVHqSpxtLmY6CLy+ZrhNhgUIIDy242N4uo9QEu0oSQaGvAfxuoLPbsxHWqQdL12px2vlTdyDwHaWpM4sYsX8NThRdpCHHMJtmlnACjHo0EU7ti/ajsquSpbmSOl5EuPPEFdHRaQK/MOmfLjovbpc+Ke3TiPE1CktpQkDOY5FyFySit0n9/TA8LE9cE8AoydTgq6XHT8bnu4utAUazctzDQrux+iF3L3KnVzHlcSOKHAhMoUMAg+8LJ61WJHHgxVNZviW84qIT8PCgywuQJ4Wi3vUF8xzQq4pj2Fek4cYKURKZ4iQIelgSp4EfqxI6YLkxahproJP7xqVqQiYsGdn4HtmLLthgDCqVz3zTqIPYpYFEAK1LHY+FMnPejImM2NosIs67k6ORPqcXPzwYDGXqB2ykVtaxYqUlTjbWoyQFgYIkzlKBN2BRx98FD9/9ocsxED6/itjDCTYZQQNCe0sDs3Jh+nRLuxv9cGrEPGTJlaq7yRi+fxVKC49xAVdJpRnPZmWebfcywIIJALlwPZFt6Gy6zIHCIINUXaR5fJTCh4trPGKB9EuFY0BFzpC5gJq1lygxZADhDTsPrGbMfWHKuA+FstZ80RGTBZuWbUNuoMXX/D5g0zVkGodEH512u28AJLpxSJA6xQikRyVCpHVPTBzlJhaJge0mq5AZYBHR0ilecaAroUYCVMlQS1DQUhREQgFEAwGuewyLfwS8zWwOYx+pikqdJVEFwTOTQqGoIR4WXPFx4maXtJJIB6TriA5LRFlDafQ7G0ehWkMllnS0dbGvLjUj5nQwgBhJrylcejjSAECuQFjBAPf2boIcSmJ+Mxzx9HoDV4nxMA9CIXJK3C+rSQMEMbhnY3oErodj97/KP7ruR8xgEC7q1XJkXBRpUFioNMf4mpIGpuadtd2IaRxV60FEArnrURJ2TFoMo9ph9tUWcAM/RAJl1zfAi1oDqhigMliC4IT2xbeiqveK7hQfYFlBnwgNwNz0pLhkihnX4NLVuHQVPjs8fj6X06gy5Qm5nt3HXPti5C1dGIAAssvMrkK1PcYp5uNSfJY6Rp5BsyMJFK8tOommP4E7gUgSeLeHTYPJ3C1IS7CxTOOGHhgjgvTt2AqLvI0QsvbwCUTe/+bF8niHEzTtiYVmmU4kVKnIMEmu2CzybAR2GZ/bfApPrT7WmDoPPV6ZM1ADAGE1jaIKvkpwgBhZPYLHz2hFrCUFMWQgdogeRDoA7vWIKVFQ8PfxmvIXboMC+Oi8cVjVbhYfT0dBAIICgqSilDafhohhuhnxkcwoYafrIvrdnz4PR/GL1/48SCSIltk2HxL7lINX1i5ED8uroTXBAgklkQxWAIIxWXHoMsmnX2y+h6+Tz8LCLqElMQMuO2RjGOrqQoMKgHtlGCz6yitrMCWhdtQ5buKCzUXuCS0EIIiOGkFZmJEkkjqgTo2zk7D3qvNPCOBHcnd23NtC5CZl848CPS78fQg0B1kEyDQPMIbgw0T+KaHEt8a6qkGV1GkKhUjamzuHGkzEBEfjW6PB1QSY2AxtJFebbKOD3sQJsvSU3wfmmgyojMhKjrqrgMQrMADCYNsd6pYtH41zh4+iZQFc/Hb45U38CAoKEgsQmkHAQRy/Y299O8Um23G3J5CDH9z99/gv19+ugcgcP0HiYnbkB48OTZVUceXV8zDfxRfRlcPQDBgM8Q+AIEm0YmczGeMWSelo332ymwBlw07EqNSGNmUKHvL563Bwrn5aKqvx8Hyt1HeVIYtC29Dra8KZTVlzF1O0XOuikkwgKA/eR90fHXNIjy+/wy8kgsCi9vzNMfZci6yl2Zg98ndZmGs8fMZcQ8C90Cxok0Mk1iEYxMu9MkYGh8j91aQ7LnegHtynDJgcWfJTSMc631UNkfSdyJuEljnVULCHISR2C587CRYIN2dyeJfdf5qs7a9pR/Ab84cm7SbZOE+mqhC+HxeKnIyU/BkcRNKGpqvo4PAQwz5CQUo95xHUPWHAcIkvFPrFoJux9/c/aE+AIGgASco3rcwDRvzcvHrY5dw9GoV/qloPp46dRVdxGwnoSforJJh4fx1OEkhBokU78NtMizAZDestFt6D4YMWXMgJzMHSVEpSEtJxoWLFbBHRKHFW4/K+vMsVHRz7u2o89fgQlUZK5DFaxYKSHPZsTgzA5WtHahpbcMX1yzEUwfOolty9gAEOjJbXoDZyzKx98SuyXjM8D1gwBkdAb8vwAo2zZQAXtiD8Fc0dPsCBP7YA6WWOUCwE0lHAJL1AJ5+ZAuCdhc+/9pJ1DRfT0mRA4S8hGWo8JSGAcIkjysSSnr/XR/E7179WY8HQREMxKsq/uvBtfi3PSUo8ehQVQ3f3bAQ3zpUzkIMfMdJC5OI/JzVKLl4ihXJeXcCBGvXNtT0fL3fTdzLtAAC8xyEHFiVvxpr89fipddewlXvJVaefd2ydTh8/hCCCoURgqww1sacW9Gs1ONCdRkT8aG3SEz+Pz24Fh2BIJ7YW4oLngC+ctMi/Ps75EHoDxAypfmYU5DNpJbDbXIsQDoIna0dEGeSDkI4zXFyBsdU34WWgsyYTAghSnOsNrszdOSRJ8fp+GpuPM4aTkhtTQjEp+L1C7U3JCmGAcLUvGkGEO78IH73Wi9AoMXfoWn4+5Vz0SG78HJJBVbFObFi6SL8866TrLJeX4CQl7MaZy4VQxVCowYIg6spMr+uaRTr//l9b+RkHVr5YvDiTq7zvo1rOAw4jqWY8bQ363e9R/T2hHLhKV/AEt0e77dpJfbxUJ6MaHs05mTMR5QzivWruqUaVQ1XoCOIZFcq5mbnoqT8JEIiVwalRiWt186+GR1GIy5UlXKAIJAXSMC/rM3EbyoVnKtvRIIexBe3r8GXd54wvXn8fLJrppiLOQXcg3BtddTxfvq/7utFJUagq8MDQZ05odewB+GvZMwSSTHLnQEiKdb0AITrkHMMHU+sysQ+rx2NV6swa84s/O70jTgIYQ/CVA0n4iC874734fev/cL0IFgLooF4Q8OH87OwffVq+FUFX35xP852eE01zV4PwtI5K3Gu8jQUcZQAgXLSGeOeFCYpf51CGFyMhu2QbSJLHaMFiUiyOqW7MU1/XgxoIGToKQpt/d6sD2Ex2fkCz9PlrMXTsn9PyemeF0LMebOaoSm9ZenZMb0c0sJhcXOJMegZD+2asuKjf8uk6gdRhwtR2JC/EXGxMTh+6ggDBprsN+uBsAx/RDvd8AYCLKWPgyATyAgyVmZtQrfQxAAC1QkgXQCycmGMgH++92a8ea4cixKicKzJh18WV8Gmi33UEg1kkQchPxPvmByE0T9R+MzhWoCEoDhA49/ETGhhgDAT3tI49TEjJhPo50EYCiBYAVEJy+1d+Px9W9Hl68b391fgQrvfJDQN3vsxMRNDxdL4Zajo4iEGhEmK4/TmbnwZEkp66NaH8Ye//KofSZGfKcNuGIiWglAMOzy6xHac1oJDynS0gCyZVYSyq2cREoIjjJEyKiTy5xVi3qwcdHd3I6SEYHc44LA5WCpaW3cr7LLL1NEQoCgqyz03qP4FNU2AzOpq8NWal9qgOhlcrIZS90SJ0tAAUZLNPHoCGhxWUEoa5bEHAkHIkoxIVyQDI7qhQaGCQ0qQ1RRQtBBCmh/BUIgp6tGm3CbamNveLtvh0COY/n5J9TFTDfTGtudH9K/JwcVw6PtSGSmQuHpxrlTkL1wBNeSHz9uFmtYatHa1wBCoOiD5LXgKIr8aX0Jo2eet16dBC8yKzI3oEppZiIFRAYmAaBBvSMUch4DFWSnwGxL2Xq2DX6O3w9MDrZYh5SAnPxt7T+0e7gOGjxulBSxPldMdAb/XDyqGNVNYCGGAMMqXPhNPy4jNhBrQ0BioMbs/FECwfsbTkuyKFwVuGStWLseP3inmxY3YZNUfJKiCBFlXsTghHxe7yhhAII32cJscC1CIYcetD+GPO389KM3xRj2w0hwXZ+WjoqqMAYSRNR02w44Vs9fh2KX9PG8cMjST40DeA0VU2QJGNTqIEEmogeem85RKkdLzTKU5JnnNsuX5okl/JFlmgEIneV1zxuVjkbPyyRth5bETIKHKm7JdhkD58ibIYMWL6ThTW4By7rmoHb8HV+QD0qNnwZ0ahdMVxcOuasnKfrNcUg5w6Dp0PYctAsnRWViWuwSaqGP3wbfh1TohSSIL11E4pFfh8FpW5/DBAiJ0/aKMTegQm1FRQ9UcuXwxvyOBBX4kPSfv0QBAbwhIk7IwryAH+06GAcLIxvrIj7YgXlRGHDwtHaRlxVUfZ0ALA4QZ8JLGo4s0HDNjMxHyK2gO1g0DIJAyItcy2B6tIXvRPPzn0UthgDAeL2MCrkEA4aFbd+CZnf89aoCwKHMpLlaXjwIgUJqkjKLZ67D/8h42RlhhILPuvSmey56aFu6hmlmbq9+vOGNAxE0RCm5eswZP7TmDwIDFjonmDJhsuYOeKeiYsrY83Y4yNhjsZVr4lquX8/9BQkImTJgTlwPBJbA6B8OLz7NlmdcfYH4DO9KjM5A/Jw8+NYSa1iuoa2+AGvIydVLy6DAwQaER9uCDc/MH2qjXavy5lmdsRAeacLHu4iCAQOFEia0//NhBjQCCmI55BbnYF/YgTMDX2P+SYYAw4SYO32CsFuAAIQuqP4TGawAES0ZlSXIsVNmG6vY2eP0aNjl15Bfl44f7z14TIHCxERV5cfmo6A57EMb6vkZ6PoUY7t/yAP68+7ejBggLMxbjcl0lAgaFh0bWbBCwLGs1jlzdZ6rd8T35wM3rtdK7Bu6nuINeh2YI+PSCBCxcvAifefUA88CzmgNMHIjDgF6nPL/6UNRbCjWwnPx+bUBRK7NA1az4LChQUd9ad0OAwEMAVPpYRmxEDDKjMzErIRs+3YsTlcfR6e1kaYmCZHopGNeCuS1MkCL0qAJez+KDAELaBrSLzbg0BEC4Bizg92OeGxFpQgrmFS7FvlNvjexFh48esQV6VA9Y+Mxg5ehnSgt7EGbKmxpjP5nUckwWNH8I9dfyIBik527D8pgQtmZEYfnipSj2itBb6tEIG/7rePkNAcLSuHxcDAOEMb6tkZ8uGg7ct+k+PLfn96MGCLlpi1DdeAU+3TfCDoiwQcOyjDU4Wr3fXFRpZzw2IhbF1RMFFT++owgdUiQ+80oJggj1hCZIAEojNqFk3odJ53LVyIF3poJGXJO/bxsYYuOlwbNjMxDSFTR7mq5vB6ptIdgwLz0Xedl58LS3oryhDE3eBiiaxjwDVtzfqk3AiJtmCILDhNEBhIK09ehACyobLg3yINzw5RkCUsQk5BbkhwHCDY019gMsgCDZbFA1lRWUmiktDBBmypsaYz8tgKD6g2gI1ptXG6yDIFGlM0hQBQXxhopNaW4smzMLvz3fjMsdbbywyhAJakxWuYekeB4hlWqmhzkIY3xtwz5dNOy4Z+N9eOGd/6U8uGGfRwdaHIT5KQtQ3XQFfuZBMBn9bEHjhMYoKQ5LcpegtrkadU010EVizxus5K4MHfmZq3C8+jAHCFZFveH2ZCgXgihgW7ITBclupKVn4x93HsYts5ORP3ce3jhfhvLaNty3bB4iY6Lx8umLqPYEzHsPHqM8S2IgQOhvJ+Z/MHRkxs6CV/GhzdfKes+j+2ZjYRMJGYlZSI5PQawzER5fN8qulqBL72STP5XzpaM0Ue3hMFihit7H5Fx2CsNYyZc3MhX3j3APREHqOnSiCZcbLvUhH3IOwg2bISBBSMDiZcuwr+TtGx4ePmBsFrDGjjs9AW3NLZCUoWbQsd1jos4OA4SJsuw0uy4HCBlQWIihYUiA0LfLVia5YUgISSJkne/crt16lRQvdJ5nTPGw1PLkDQJSTLxj3b14ef+fIIgj05a3AEJOUg5qWqqgGCFIGon8muVvBR0Bgara2ZAkJ2LRrKWYvzgHu46+hYtNlxkJziYoWJxShJLGk2a9+143+nCsMNDtSgS+FMWHH73vFrx57Dh2bFyPb+88hm9vy8NP3zyJLSsW49k9x/GlHVvwXy/uwdpNG/H/XtiHkEDjkJX9G85t+x1DE7lkaMiMy0GX4kULq9pHyzF5AgS4jAjMSpyNNUUbUVVVh+Lyw/Co7dyLQdGUkeGyEfePn8ABQn7KWnQZjbjScInyM00gQ+TQGwMEAkuxiEf+sgLsOx0mKY7yRQz7NGtYRGfGo72lFWLgevPosC87KQeGAcKkmHnqb9IDEHwhNIaGBxD4fEQ15nnUt5cdPRT1qVdJsZwBBKKThT0Ik/Xm6Q1tX30HXjv0IouHj6QRQJANATmJOahrrYLbFYO8+SsgSgZCisZSBH0hP7qCftiJmQ8XYu2JWJG3ApGxkfjlaz9HTWsZFiYV4kxz8ZgBAk2fcRLw+U0FEP0dqPEp2JiVgJ/sKsZ3Ht6E/yxuwoqMKJw5XYwHbtmIPx2vxMrcefjs87vgMzMkxgIQZiUuQJfSjUZPA6vsNy99AZJjk1j54ab2BlQ1XEVQ9TIehMjWYwO62D/NcST2H9mxHCDkxiyH6uzElUbyIPBGfIjhAAQ6wW3EYllBYRggjMz4ozraggNyhANBf4BluIxf5YtRdWnYJ4UBwrBNNbMPHClAGPnTmgAhfhkudJ6DooeLNY3chmM4w5CwrWgb/nL8lREDBA78BMyJnYWmzjp4WfbKgGaosAtOJNrTsH75BsydMwfHTx/H0dNH4RO8ECU/FiQU4kzLqTEBBOoKFZYqSnABDhsO1LRBlQQ8vnEFDpSUYl3+XJTXX8XF9m7MssuIjnJD0wW8VduCq5rM0gbH6kGYlbQAXaFuNHTWIzt9FtIjMlFSfhoKCRnRDt0qF8zCAzzNcuT+itG+aw4Q5kbkQ4oLorKO0hz53YcNEADEaLHILwwDhNG+hZGfZzAPk6apTBzsWtk8I7/uxJ4RBggTa99pc3VW7jkmA+owPQgj77jFQcgHeRDCAGHkFhzTGYaMW4puwVsnX71OGe+h70AAgRYdAggtngZ06wOTCQFJNZAWl4mUhDTUNlxFu7eDlQRnsX1JgCRoyE9fheO1h4cBEIYQ2urxjFPKJKUkSqzyHitDJBiIEgTMVoO47eZVeGLvCTgEHXcnRqErJhVvXm4EqdRx9j6l51KI4cau9oHWYPp2hoY5KYvQFepCQ0c9T3wkMSZBMpUIeQ6CtSsc+V3G9JZ7QgxznEshxYdwub5iVAAhWo9BQUEh9hbzao4jVMYa60P8VZ4fnRIDT1sbRMZBmJR41JjtHAYIYzbhzLgA7TtISVHxKWhRG0zy1Mhi1dd/UiJmaVgazwFCUCOxnfG8/syw85T10pBwc+Et2F38+ognH75cC5gVOxut3iZ0K96hH8PKn2OiRBSv52mMuqQzJcIN87ZgV/kucwGlJH8eMbdIeJZ642CyoJkS2ZP+Z0CimggGaRyY8XUDiBVUfG37anzx7VOw6wLyJAVFeYvws5OXIElc2IsBFgIYDFoMbhZVkWsWDlA/ZBwEHfOTFqNL4QCBW4YDqL45mxZAmDzPgfUsPAtitnMJxNgg4yBwqSn+8+vzhHrtEaVGoaBwOfadfueGqZxTNqbfZTeOzohFR0sr5CCNpJkxN4YBwrtsEF77cXSkx2Qi5NPRptUzLfyhM8ZHaxDOoCap5XLPOQTVMEAYrSVHdZ4hYsuyrdhzeuco3d0EEOagxdeE7lD3sDaUvTtpA3ZBxl2r34tOgzJduKyvX/Uj2u6Gwx4FJahAJcnjEP0NQtFU2O12OBx22Gw2yJKDKTCSwiDF/SX6t6mjwCST2VZdRJpTRoNfg6IqcBgqEmPcaPZRfQf6Pa9qyO4ualxqWdPZdWPdcYAgMbnlkBpkKo9BJQBFVZnsc4ikl3X6mQ+p7iwU1xxDVcuVa4CMqdxwE2FSRLqUC2eiiiuNlxk3iClG9vNtXH8URaiRWF64HPvP7BvVcAufNDIL0PcgR8gIkRQ4SZ0P6wsb2T0m4ugwQJgIq07La/YChFa1jmnYC8T4HrdmAYR8lHvOhwHCuNl1eBei2PuW/Fuw98zOYfDYh7qmgOyY2WjztzD3+nB41layFi1QMjQkudIh2mxsYaZaDD54IQVlaCrVRKAMQNrd83uTcBEpLlKBJMoCYD4EazxSvQX2E9Xsh9UbBbrdgKgZ0CQ7zz9kBFrKuOC7aF4TwWDhD34yEfe4N4P+UuyXlBRZ1oRoehFYCiT9noo5aaDohibR+UP7B64nRDS8tzWWozhASEMO7EkaqpuvjhogFBYU4sDZ/WPpTPjcYVuAFzBjMl+6PEj9c9iXmeQDwwBhkg0+dbfrBQgtSq3ZjTBAmLr3Mb53pvVu67Jbsbdk5yh13gVkRGXBo3TAE/QMCyDwVddaLkW2A+eVHHtd3fRbU6Cw3wNzJnefxibP/o2rFPaHKqZC8fga71pXY2KNg6HSdAAIKcZcOJJU1LRUjwIgGKAQw7KC5ThwNuxBmJzBBEQmRsHb2Q0x1Ley5mTdfXT3CQOE0dltBp6lI41xEHSQB4ERucY1DkaTuYY8FmKgao4klDSeAGQGmnwSu0y789uK7sDbJ94Y5e6EAEI2utVOdAQ6RggQqOqiFf/nAMFqTAp5wBpL4GDwsjsEQKBrDjiS1xiY2ja1AIFzDZL12bAnqKhrr+3hIAw3xEDffpQWjWUFBTgY9iBM2mCKTo2Gp60DUtCsVTJpdx79jcIAYfS2m1FnUknfrJhMqD4dTaEJ8iAIOgMIVM3RFyK53jBAmKxBQkz7m1feibdO7ASgmLflHHvS3qfdONvvs6JE/VdZLgUrYFbkbHg1L9r9XEEw3KanBahKY5yeBDleRHNHk+mhGX4+BZE4I/Uo5OUvw5Fzh6bnQ75LetUXIEfFx6K7rYOl8U4DnDssC4cBwrDMNPMPovxtquY4oQABOvISluGipww+JQwQJnPUEEC4bc292HlsJwyDYvcCDJ3H8KkcMJuSqPyvoPfb4dO40Ji/X0R25Bz4dS/jIYTbNLaAAcRpiRDjRbR2tpjumJEBBJcawZQUj54/PI0f9N3RNevNMM4Oec+GCFtN1ycNA4Tp+mbGuV+TCRAqPKXwK6TnH/YgjPNrvOblBB1YlLUMiSlJsIkSZJsMWbBBkmTO6ocKhTH1DQRDISb2Q2RCYv37dT/7t1OMwpmLZ+FRO8JvbrJe3GjuYxiIURMQk+BGu6edkT9JmloURETJkezfjAxnCmBZ9S7VkGpqJgiwSy6kzo3H8QvHR9OD8DkjtoABhzsCvm4fJK6uNeIrTMUJgtvtninejqmwz7vmnsTszqQQg19HY9AKMYynWIcEkUIMictQ3nEefoU4CON5/XfNq5iQB7FKK1uafixOztiBZv4+ywzgf6j1kgnpEN0sRyyylD9N5KmC4TYdLSCwTAwb7EhMSIQOFapO/A0DAv1ctA/QbGBObv4gBnjdCAiwyza0e+rQrVLIKdwm0gIk3kUpuNGpsehs64QQmsi7je+1wwBhfO05ba9GAIE4CKSD0MtBGM8FnAOE/MQClHeWmhyE8bz+tDXttOgYzxvoa2++MLAsgp4eDjzGXDXMBYR4CFzhjdL9wm36WoBkdqjeBvl/LBkqvvDT+zP6ubD7j4DeZ9Lh0EUo4Rc94a/ZxsqZaXAmRMPj6YZoUYQm/M5jv0EYIIzdhjPkCgYyYjMR6FbQqlrFmsZzATcBQlIh8yBwkuJ4Xn+GmDnczbAFwhYIW6CPBXpUN/uLcc4IG4UBwox4TePRSQMZcRnwekLo0JrMC47nAs4BwrKkAlwgD0IwDBDG462FrxG2QNgC7wYLGLBTNcdgEAIVxpkhLVFZ6OUAAA+RSURBVAwQZsiLGns3TYDQGUKn0WzqIEwMQCjtLEUgDBDG/srCVwhbIGyBd40F3Jmx6GjqgBTitOGZ0MIAYSa8pXHpIwGETPg8QXToEwwQusoQ8FPBn/EEIONihPBFwhYIWyBsgSmxgDs9AZ4WD4SgyuTAZ0ILA4SZ8JbGpY+kgzALvm4/2tThhBisATxcd5gEQdBRkFyI0q4KBHxd49Lr8EXCFghbIGyBkVqAFQyzCn+M9OQJOp5mVLtoh6apZunwCbrROF42DBDG0ZjT+1I6smLnwtvdjVatlXGfry9b2yvvMbycXQ4Q8pKX40LXJQYQrOI509su4d6FLRC2QNgCE28B2S5DC+hsOuWlz6d/CwOE6f+OxqmHBBBmw9vtRbPGpXQtgDC0j2BkAIHVNzcBQkXXRfh9VDJ4sL7+OD1M+DJhC4QtELbAjLJAXFosOlq7oIcooTgMEP5/e1fW3EZuhD8AM8P70GF5197dpJJUnpK3/P8/kDzlIalKpVLJ1nrXh0TxGpJzAEh1Y4akZFlL2TpIuadKtijOAN1f93Q3GkDjoIT3/ImlAOE7LOYpRvaSj91lp87757evUHTlatbgo6P3PlpfQItutC7xp5d/wb/G/+Y1CFJs5/lrlXAoCAgCuyEwfDXE+HwG5FvFq3Z79MnukgzCk0H/2B07vOp9h0E8wKwYI06aKBwtI1RYFVSC18E5Kr1bQikP70PpHXL8VI6F19RQARauu0KFPyJEUQStFZTWUMZxuPGHF3/EX3/+G9L5RIrtPLaIpT9BQBDYWwS0AZw1lVWVDMLeCuprJSxGjNfD3/DegigyyJzlRJelwMA7OEsrE0KZL6rnrgYRGkWELF2F4IAvz/X8KQWhTQgQtNawhoINA+2AN+Mf4axML3yteiZ8CwKCwDYCYTeXQskDq3Xp6wMASTIIByCk+yTxyspetZlguDqJQNMFHu6FRidrIb2kcxW2rpsWLdCBMRxEhJxDeCF23QFxnxxKW4KAICAI7BMCIUAYvj7GdDSBW9JhDIdhGyVA2Cc9enJa6sN9KIPgYU80eiUFCFQV8XOuw0ijfQ5n8owgIAgIArsj4DH4/hjTd1N4WYOwO2xy5z4i4OBo0YEKJ8TRD1112aNPHf+yj5wITYKAICAIPC0CIaPaHLSRpyvYknYxHMYlGYTDkNMjU+m40peNwMfK+iKsJ7ithPjtNRUemXzpThAQBASBPUOAFn9rRChpOla2Oe6ZdIScOyHglIUdRuj7LpZjqYp4J/DkZkFAEBAEriHQOetjcUnbHJUUShLtOGwErHJwQ4WhHyAdTw+bGaFeEBAEBIEnRuDohxOM34+ApQQITywK6f5LEaA1CIUp0PJN3v4o134hsMtJGds7U67Ped703U1t7tIPIbPZBPsxTre1sUuft/FBve1C4y40fIqP67x9av74LnRs91Ujdt8yud7uocx779ebdj/UkGybR22s5guoglZzHYZNlTUI9yP/Z9cKbVW0yqJhGrCl1DT4tIB9OJmN1nQ+4umV++CMth1O2OC6MXvb3+3inG+7/3MChOt93rWNXZ31Ls79psDjxp3CW0p2W1Cyi+y39fWu9z87Y7YnDIXt31R8TkNLgLAnUhEyPhuBou1x0hxgOpIphk+ByPUmfTDn7hEPYLltxF7TepPTve27m9q8rZ9Q94Iig407rXe60Pho7Zj4ewXoG9wiB1Z0eM0Wwi6Mrvy6OFeo+FlX2Fj3e61vKuZFdT54s26I2bhd/psKlUFDnY6PL1XxUI/riA9qgz9T0bCtR64HD/y55mMrGuCNQBUONX+34nlDH3eVyU16uouufLaRkAd/FYFa67ovjpBNx1jlFsZT3dn9vySDsP8yejIKV12Ll41jXF5MAGXZ2FFB5QgOERljaFDBRGWomiIVZNaAIwNcQkcUJdP3DoVzMI0YkTdwpYUvSyStBldrpOmLPMvQbLXhFECFSOfLJVSk0Gw1YEyEdDqHVhqdXoefyWZLFHmJ3lErVHHMPaazFL1+B1HDoMhKTCczdHo9NDtNUGHo87fvETUTDIZ9aG24YEleFBic9vjzYjzHqijRPR4GfrICs8sU/ZdHRBRUAUw/XCLpNdDsd2GLAhmd7d6K0Rp0WEbztwt4VaB71uVS1S4tMUtT9I67zM8qzZDPV+gNu1DNGL5UmH+YIOnHaLQS3kiank9hTYnOy2MYG2MxSlGWBZrHbS5pnY+XcEWJ1qsjRLDwc4356BLmqIm4ncBlFsVoBd03SPotzmosf57BG4vGaRcGDuVoiTQv0Hk5QJQAq4scblEgOWvAxBFc6pFdThAdN6GTCJFLkL2fwiYKyUkHxiqU50u4RKF91uIKmtM3Ezjv0f+hC086MAXmk3n4Po5QzkvkswXMMGE6k0Jj9sslNFXrHPRYbxZv5yi8xeD1kJ1zflFglS/ROusgbiZYXY6RjS3OfneGQjlEpcH5/96hddpFs98BVg7pLxOYfoLmSZsDgsv/XEA3FYavjuAKi8XFAtlijvbrQfDe0wLL6QrJaRtRI4FZOszPUzTPGoibMbRXGL2ZAk2HzinR5VF8mFHxcTRetGG0QfpmAu8NBt8dc/0QkvvkfIbGN11EiUGe5iguMpge0Ow2oazH9P0cuh2j2W8i9g6r8xRLB/S+HyCGQnaeIV+WiE5imNjATUvYxRLJaQ8qUVA5MP8wA3oxOkddqMIjfTeFiYHWsAvtNRbvx3AGaLwgHSfdKZAtF+h+Q3oA2HmJxTxn/YtbDSBTWI1mQUbdBiJnMH87Qqk1ei+6rOPFKEdRLtE5G0IpjcVogiKz6J/24aiqauEwu5ygc3YEFUVwCw9Li5w7EZrdBoyOcfnzGKal0Oq3oZRBOpohsyVOvz3l8C2brZBNZ+ic9BElCfI0w3KSonc2hI7oTDiD8dsRkm6L8SNBpu/GbBt6x0ccAC4vJig9MDgZgurFFrMF8sUS/bMBB3z5qgj62e+g1U5Q5haT8QyNVgOtdhPeOsxGU35ve70OnDdYrXKUeYZG1WeZlrBliVaXbJmHL4FVukLcasFEhgPn5XyBKI5g4gTt1z2MfjoHlsWjZhu/xIFIgPAl6D3rZz0KXbCTf/3n36PRjuEWOX78+48YfD/AydkRskWJN/94i963XfSOE0Al+Omf/4Uzio04GaH0fYrJ5QT9354iVhrL8xLFPGWjT6l5nQPpxRiu14RJDJdoVtMVLI02GyFtr8hykmVIqC4DoDMN5yLYRsYjQ13G0KWDjR087bfMDVRewseeaTHWI3YGReThozD+05mjUydgknC+hCl5zAjECqW3gPVQTiGO46oehEJZODitkRjizMPmObyJ+Ix3Nmy24P/jyHAK0Tr6sYgo4KBvLJWp1kAc8dHYZEB4TzSXqw7K5MrqCC3ug8pgOx4BxyriAMr6UB4bRiP2Ho7OzKARN42QebSsAHqGPvCIXSNEcQ6asPL0w+xxv6VyMFRmm0Y0PPSuh/4OBAllR7Q369G0Z0I9t0E7XYgWChhDCkBxAEJ/c4rO8iRewpicHBaFkEQXPat5pE9oEZ8alreAAd7FgKaStNQL3UGuOGQQyDlTnwFN6pL0oarVUbVGNPB2XEW9M1AwPgS3xAf9rdBEP9HKR4zBVFkHmkirs0Bc/4Og5A1p9C8BFmjn7MQ6IxEyFNyvJrosy57aD9ob+uBS5pqR4za8CoeisTz43FP6XdMxJxsZOJIpZT/Cc3ReCh/BynQYONJTorFuy1JI1ADVO6fpQe2KID8dhekfTxkWB2MM00D6VxCtigQdUUPwroSPiHei08PZknmN6CABKBSO/u7goxDMc3l27/hxRoH+sVUfKuhnaS2cMYjozBYo5GXBPNB7ZLxCUZZwKkcUN0L9VUvvheXAiO5zhF3poOPwklAgSp+dKREZ0m8DXdJUn4WN6Q6FVqmRewUb82QpVEnsRvCNkttQpQ5rqyKindrQ/O6pWIFeBZKhWhHWtNeb9JvUMuaaMHknZ7sTLyN4myNqaQ7EfBlBrSx8S/HAIab68+McWeIRdRtodhPM3lzC2DrPtv8ORAKE/ZfRE1FIBosMMhmiYKR9lWolg8D5Aq+Dcanm1DZpZTLm4fgGuhNklNicKC7ARAY12KeQg2Unz69kyAvzt5wXDYa39ltaeZR8iFTIapMb5jk95YKBZScSktFc6KlKSpOJDwdPhag+GHxyGPRsgJeMIP01Itq28snk6MINwYHVy/GC4yLntEkVXkmTr6VWzztuktvhuBZy6mR4Kh6qppnsK0nwwH1wpnX/m9+udFN9IDrCtAfxsvb4H5V3ZUfFvDPyMIwdm2DGb418hRMf20WOvGKUaCLXy5mlqs/QQsA+BAjb5bWucrGOSCqHG5xm0J36qudt62VdNVrr6QYOI4Lsas+6PSEQdInkFDgLFNQ01oKmw8jIlTMTFf0bIx6mK0hX6qBmowWBzrqdCr2KgU0wEWRaTX5U+mm5T8armoHhCQ3SB3pHKr7WyqgoyKAS6LV2VPKt3xfW/zoAITkF/QwUBxrrKRZ27ZWe8fqZNW1hSoWDV6KM7wm6V/dKEq11n/qjcIj0mAMR1pzADMUxpBNbzFX8byRbS4QoDWiHAQC1R9nIeoqGPtdvX/UqcuBE7yTZDg6Ka8yq95fDLv6upmj7/amlRsGH58C51h16FwLZNV4bXeR3gm1X0EKyj0G/SCjB/tS6UNuY+oA7kgPF64T3lXL3m+b38jcJEPZSLF8fUeFl3vIMzxCCmr8rc+hfyGftmp4Sudp9bMzjLkxdH0XddVV3HY6G/ML163oIcNPCg3VwuBWS7fXYrsr6rF3sTu/LxrlvUkQ3y2c3/aTDhsIoXK7dEKg1+27vx25tP/RdEiA8NMLSviBQIbCbAT48uLaDk63ky68wcv3Ou4Y42wHFr7t1Tqlfu8II93CuerHlQ1G8m34ezha9h8Lpru1+3vtx114e5n4JEB4GV2lVEBAEBIGvAAGaFjqMFflfgTDunUXV6/XuGrrfOxHSoCAgCAgC943A9uqL+25b2qsRCOsV5HqeCEiA8DzlKlwJAl89AhIgPIYKSIDwGCg/VR8SIDwV8tKvICAIPCgCEiA8KLxV4xIgPAbKT9WHBAhPhbz0KwgIAoLAwSOw3qN58JwIAx8jIAGCaIUgIAgIAoKAICAIfISABAiiFIKAICAICAKCwJ4hsA+1YSRA2DOlEHIEAUFAEBAEBIGHrnuxC8ISIOyCktwjCAgCgoAgIAg8IgISIDwi2NKVICAICAKCgCCwzwjU0wq7VbV8eE4kg/DwGEsPgoAgIAgIAoLAwSHwfw0ityjw5LOiAAAAAElFTkSuQmCC;" vertex="1" parent="1">
                    <mxGeometry x="-810" y="60" width="1175" height="470" as="geometry"/>
                </mxCell>
            </root>
        </mxGraphModel>
    </diagram>
</mxfile>